<?xml version="1.0" standalone="no"?>
<!DOCTYPE svg PUBLIC "-//W3C//DTD SVG 20010904//EN"
 "http://www.w3.org/TR/2001/REC-SVG-20010904/DTD/svg10.dtd">
<svg version="1.0" xmlns="http://www.w3.org/2000/svg"
 width="1024.000000pt" height="1024.000000pt" viewBox="0 0 1024.000000 1024.000000"
 preserveAspectRatio="xMidYMid meet">
<metadata>
Created by potrace 1.14, written by Peter Selinger 2001-2017
</metadata>
<g transform="translate(0.000000,1024.000000) scale(0.100000,-0.100000)"
fill="#000000" stroke="none">
<path d="M0 5120 l0 -5120 393 0 392 0 55 26 c30 14 80 45 110 68 169 132 692
436 751 436 10 0 32 13 49 30 17 16 41 30 54 30 51 0 214 33 263 54 l52 22
-50 64 c-76 98 -75 94 -34 149 19 27 47 75 61 107 33 76 50 95 76 85 18 -6
167 29 229 54 9 3 37 41 62 84 54 90 122 170 172 201 19 12 111 41 204 65 277
73 389 120 530 225 l84 62 -9 81 c-5 45 -9 121 -9 169 0 104 9 119 112 193 39
28 110 86 158 130 48 44 103 90 122 104 49 33 150 73 197 77 22 2 44 8 49 13
4 4 2 126 -7 277 -9 148 -18 339 -21 424 -5 141 -4 152 10 124 16 -36 35 -140
35 -195 0 -47 33 -120 61 -137 21 -14 22 -13 16 28 -8 61 8 36 22 -35 14 -66
66 -243 86 -290 7 -16 28 -75 46 -130 19 -59 35 -92 37 -81 3 16 43 88 58 105
2 3 15 -6 28 -18 13 -12 35 -23 49 -25 14 -1 33 -10 43 -20 14 -15 15 -22 6
-37 -16 -26 -15 -29 8 -29 26 0 36 -24 22 -53 l-11 -22 0 23 c-1 13 -5 20 -11
17 -14 -8 -40 13 -40 32 0 22 -22 40 -42 35 -11 -3 -18 -14 -18 -29 0 -16 4
-22 12 -17 8 5 9 2 4 -11 -8 -22 20 -56 40 -48 8 3 14 1 14 -5 0 -25 -56 -22
-95 5 -11 7 -23 13 -27 13 -18 0 24 -77 58 -106 l35 -32 51 19 c47 17 85 42
116 78 10 13 12 13 12 0 0 -8 -9 -20 -21 -27 -11 -7 -19 -19 -16 -25 2 -7 -5
-13 -18 -13 -31 -2 -75 -43 -75 -70 0 -32 -17 -39 -24 -9 -5 19 -13 25 -33 25
-16 0 -39 11 -55 27 l-29 28 20 -46 c12 -26 27 -81 35 -122 19 -97 54 -214 66
-222 6 -3 10 -2 10 4 0 5 -4 13 -10 16 -5 3 -10 20 -10 37 0 30 1 31 20 13 26
-23 44 -15 72 34 13 23 29 41 36 41 6 0 12 9 12 20 0 11 5 20 10 20 13 0 13
-27 0 -35 -6 -3 -10 -14 -10 -23 0 -14 2 -15 9 -3 8 12 13 12 24 3 17 -14 27
2 27 43 0 13 4 26 9 30 5 3 12 18 16 34 3 16 14 36 22 43 14 11 16 10 11 -7
-3 -11 -9 -29 -13 -40 -5 -13 -5 -17 2 -10 20 20 63 148 53 160 -6 8 2 29 25
64 19 29 35 57 35 62 0 4 6 6 14 3 8 -3 17 -1 21 5 3 6 -1 11 -9 11 -9 0 -16
5 -16 11 0 6 9 9 19 6 14 -3 18 -1 14 9 -5 14 35 36 50 27 4 -2 7 5 7 17 0 12
-4 19 -9 15 -5 -3 -12 -1 -15 4 -3 5 1 11 9 15 8 3 15 16 15 30 0 16 5 23 16
22 9 0 19 6 21 14 4 12 3 12 -5 2 -7 -11 -10 -10 -16 3 -9 24 -8 27 6 19 8 -5
9 -2 5 10 -4 11 -1 19 11 24 9 4 17 15 18 25 0 9 1 32 2 51 1 20 12 44 28 61
22 24 25 35 24 94 -2 74 11 177 25 203 6 9 28 30 49 48 49 38 79 82 106 152
11 29 26 63 32 76 13 25 38 30 38 6 0 -8 5 -12 10 -9 6 4 8 15 5 26 -4 11 -2
19 4 19 6 0 11 -4 11 -10 0 -5 4 -10 8 -10 14 0 10 29 -5 35 -10 3 -13 14 -8
35 10 45 -3 36 -15 -10 -6 -22 -16 -40 -22 -40 -6 0 -8 9 -4 23 4 12 13 73 21
136 13 102 19 122 54 180 22 36 50 87 62 114 25 50 44 60 54 26 4 -11 9 -19
11 -17 2 2 -2 21 -8 41 -8 27 -14 34 -21 25 -5 -8 -7 2 -3 27 3 22 6 70 6 107
0 67 0 68 55 132 47 56 80 109 142 228 21 40 26 40 52 2 13 -19 27 -34 32 -34
5 0 9 -7 9 -15 0 -8 5 -15 10 -15 6 0 10 -6 10 -14 0 -7 9 -25 21 -40 18 -23
21 -38 18 -119 -1 -50 -1 -109 -1 -129 1 -21 -2 -38 -7 -38 -13 0 -23 -82 -22
-172 1 -70 -1 -78 -17 -76 -10 2 -16 -2 -14 -11 1 -7 -9 -23 -24 -36 -18 -16
-24 -28 -20 -42 4 -12 0 -25 -9 -33 -12 -10 -13 -16 -4 -27 10 -11 6 -20 -17
-44 -25 -26 -27 -32 -16 -50 8 -12 11 -24 7 -27 -3 -4 -10 0 -15 7 -10 17 -40
7 -40 -14 0 -9 -9 -15 -24 -15 -31 0 -102 -68 -87 -83 14 -14 14 -27 1 -27 -5
0 -10 7 -10 16 0 13 -6 15 -27 8 -16 -4 -39 -7 -53 -7 -14 0 -19 -2 -12 -4 18
-7 15 -23 -5 -23 -14 0 -15 -2 -4 -12 11 -10 14 -10 18 0 6 14 33 16 33 2 0
-5 -7 -10 -15 -10 -8 0 -15 -4 -15 -10 0 -5 -8 -10 -17 -10 -11 0 -24 -15 -35
-40 l-16 -39 31 -4 c24 -3 23 -4 -7 -3 -29 1 -42 -3 -51 -19 -17 -25 -32 -88
-16 -65 5 8 13 11 17 7 4 -4 2 -13 -4 -19 -7 -7 -12 -41 -12 -80 0 -52 -4 -70
-15 -74 -8 -4 -15 -14 -15 -23 0 -20 46 -49 57 -36 5 4 2 10 -4 12 -18 6 -16
31 2 49 13 14 15 11 17 -25 0 -23 1 -47 2 -53 1 -7 -11 -19 -26 -26 -33 -15
-37 -42 -7 -42 15 0 19 -5 15 -17 -15 -55 -18 -63 -27 -63 -5 0 -9 -11 -9 -24
0 -27 26 -42 46 -25 17 14 48 3 41 -15 -3 -7 -1 -18 3 -22 12 -12 15 -80 6
-130 -5 -31 -4 -44 8 -54 19 -15 21 -52 4 -81 -10 -17 -10 -23 0 -26 6 -3 12
-15 12 -28 0 -12 6 -28 14 -35 8 -6 12 -18 9 -26 -3 -8 0 -14 6 -14 6 0 8 -7
4 -15 -6 -18 23 -102 44 -127 8 -9 12 -21 9 -26 -3 -6 1 -12 9 -16 8 -3 15 -1
15 5 0 6 4 7 10 4 16 -10 12 -52 -6 -59 -9 -4 -13 -13 -10 -23 7 -22 -1 -33
-36 -56 -18 -11 -28 -26 -28 -42 0 -14 -4 -25 -10 -25 -5 0 -10 -16 -10 -35 0
-20 -7 -46 -15 -59 -21 -31 -66 -166 -55 -166 17 0 21 -52 5 -69 -8 -10 -15
-21 -15 -24 0 -4 -9 -26 -19 -50 -25 -56 -49 -126 -71 -212 -17 -67 -45 -169
-77 -284 -8 -29 -46 -115 -85 -190 -38 -75 -76 -151 -84 -170 -14 -34 -14 -34
6 -16 11 10 34 41 52 69 18 28 51 80 73 116 41 64 61 110 85 200 7 25 34 97
60 160 26 63 62 159 81 213 28 83 36 97 55 97 30 0 50 -25 35 -44 -14 -16 0
-29 21 -21 19 8 67 -41 89 -90 10 -22 23 -77 29 -123 16 -123 51 -209 99 -249
l26 -21 28 26 c15 14 27 34 27 45 0 14 5 18 20 14 14 -3 24 1 31 15 9 16 19
19 55 16 24 -2 44 -2 44 -1 0 1 -21 11 -46 23 -57 25 -84 54 -84 91 0 29 21
52 28 31 6 -20 25 -13 20 6 -4 15 -1 18 18 14 22 -4 24 -1 24 32 0 30 3 36 18
34 11 -2 18 4 20 19 2 12 13 25 25 29 29 9 80 61 72 74 -3 6 0 7 10 4 11 -5
17 2 21 25 5 23 11 30 21 26 10 -3 35 16 70 52 53 56 54 59 48 101 -5 31 -3
42 4 37 6 -3 11 -13 11 -21 0 -11 4 -13 17 -5 10 5 17 21 18 38 0 21 4 27 18
25 10 -2 27 6 36 17 10 12 23 21 30 21 17 0 13 19 -8 46 -17 22 -20 23 -24 7
-3 -10 -5 -4 -6 13 -1 19 7 42 19 55 l20 24 19 -23 c17 -19 19 -34 16 -93 -3
-38 -7 -74 -10 -79 -7 -11 6 -71 15 -65 7 4 5 -26 -6 -85 l-7 -35 25 30 c13
17 28 38 31 48 4 10 12 15 18 12 5 -4 16 0 22 9 7 9 31 22 53 29 62 18 101 57
115 114 7 26 19 56 28 65 41 45 49 55 67 85 22 39 24 40 51 11 28 -31 43 -62
43 -90 0 -19 2 -20 11 -8 8 12 9 10 4 -7 -13 -45 42 -91 66 -55 7 12 12 14 15
5 3 -7 9 -13 14 -13 4 0 25 -16 46 -35 21 -19 46 -35 55 -35 10 0 21 -5 24
-10 4 -7 -3 -8 -22 -4 -27 7 -28 6 -10 -13 9 -11 17 -27 17 -35 0 -9 7 -32 15
-52 21 -49 11 -85 -21 -82 -32 4 -32 4 -37 61 -7 78 -17 105 -41 109 -38 7
-69 5 -89 -6 -19 -10 -19 -11 11 -42 56 -57 67 -71 80 -107 16 -47 15 -74 -3
-89 -8 -7 -13 -16 -10 -20 3 -5 -1 -11 -7 -13 -7 -3 -8 -6 -2 -6 14 -1 173
137 299 258 55 54 110 104 123 113 30 20 69 118 47 118 -8 0 -15 4 -15 8 0 4
-27 27 -60 51 -61 42 -72 58 -106 153 -14 41 -27 55 -83 92 -36 24 -90 69
-118 100 -30 31 -59 53 -66 50 -24 -9 -49 34 -87 148 -30 88 -35 117 -27 135
8 19 -1 40 -59 140 -103 178 -171 316 -193 391 -11 37 -43 150 -71 252 -28
102 -59 208 -70 235 -10 28 -33 105 -50 173 -33 129 -73 237 -116 310 -24 41
-25 46 -13 93 24 95 76 115 115 46 12 -21 25 -37 30 -35 13 5 101 -283 125
-407 12 -60 39 -166 61 -235 22 -69 53 -170 68 -226 44 -155 210 -584 276
-717 71 -140 162 -257 339 -432 197 -195 285 -271 296 -254 5 8 9 9 9 4 0 -6
-6 -17 -12 -23 -10 -10 -10 -15 2 -22 21 -13 22 -13 49 22 20 25 22 32 10 40
-11 8 -11 9 2 5 10 -3 30 9 53 33 38 41 147 125 249 193 34 23 67 52 73 65 6
12 21 33 33 45 18 20 19 26 8 41 -16 22 -46 11 -49 -18 -2 -41 -3 -45 -11 -52
-4 -4 -7 -16 -7 -26 0 -10 -4 -18 -9 -18 -6 0 -6 12 1 31 6 16 8 33 4 36 -3 4
-6 1 -6 -6 0 -6 -12 -16 -26 -21 -14 -6 -22 -14 -19 -20 3 -5 2 -10 -4 -10
-22 0 -30 34 -13 53 14 16 14 19 2 27 -13 8 -13 10 1 10 18 0 48 30 46 45 -1
6 21 22 48 37 56 29 79 36 49 13 -24 -18 -14 -19 21 -1 16 9 22 16 13 18 -16
6 43 34 89 43 45 9 107 -21 168 -81 45 -44 50 -54 52 -97 1 -31 12 -66 32
-102 17 -30 27 -55 23 -56 -4 -1 -14 -2 -22 -3 -8 -2 -24 -4 -35 -5 -11 -1 12
-11 50 -21 84 -23 85 -23 85 -10 0 6 -6 10 -14 10 -23 0 -27 38 -5 42 18 3 17
6 -8 43 -16 22 -33 43 -40 48 -6 4 -14 21 -18 37 -4 17 -10 30 -15 30 -4 0
-10 7 -13 15 -4 8 33 -15 81 -51 134 -100 142 -107 158 -136 16 -30 19 -62 5
-54 -12 8 -25 -45 -13 -53 14 -10 20 -35 11 -56 -6 -17 -8 -17 -8 -2 -1 9 -9
17 -18 17 -13 0 -14 3 -5 12 17 17 15 26 -8 33 -11 4 -32 18 -46 32 -14 14
-27 23 -30 20 -3 -2 12 -21 33 -42 37 -37 37 -38 16 -46 -18 -7 -43 -37 -43
-52 0 -2 16 1 35 7 19 6 35 15 35 20 0 16 30 -16 31 -33 0 -9 9 9 20 39 10 30
30 66 44 80 14 15 22 30 18 35 -5 4 -3 5 3 2 12 -7 96 76 128 125 17 26 17 28
-2 55 -59 81 -253 217 -252 176 0 -14 14 -28 52 -53 21 -14 43 -35 49 -47 7
-12 15 -20 19 -18 4 2 7 -2 7 -9 0 -14 45 -78 51 -72 2 2 -1 14 -7 25 -10 17
-9 20 4 15 8 -4 15 -10 15 -15 0 -4 7 -5 17 -2 12 5 14 3 9 -8 -4 -8 -1 -6 6
3 13 15 15 15 24 0 8 -14 -8 -35 -86 -112 -52 -52 -85 -82 -72 -66 30 39 28
53 -17 123 -45 70 -76 102 -112 115 -26 9 -48 48 -28 48 5 0 41 -18 80 -40 39
-22 73 -40 75 -40 2 0 -4 9 -13 20 -10 11 -21 20 -25 20 -4 0 -41 25 -83 55
-43 30 -82 55 -89 55 -14 0 -66 47 -66 60 0 6 12 10 28 10 19 0 30 -7 37 -23
13 -30 61 -33 69 -3 6 22 -4 39 -11 19 -5 -15 -33 -17 -33 -3 0 6 -4 10 -9 10
-17 0 -61 47 -61 64 0 10 -6 23 -12 30 -17 15 -112 56 -132 56 -9 0 -16 5 -16
10 0 6 17 8 43 4 67 -9 106 -24 140 -53 18 -15 55 -40 82 -56 28 -15 79 -49
115 -75 36 -25 85 -58 110 -72 25 -14 71 -53 103 -86 l57 -61 0 -93 c0 -62 -4
-99 -12 -107 -10 -11 -10 -14 0 -18 6 -3 12 -9 12 -15 0 -6 -9 -3 -20 7 -19
18 -20 17 -21 -6 -1 -13 -1 -27 0 -32 0 -4 -3 -7 -9 -7 -6 0 -6 -9 -1 -23 8
-21 -6 -57 -21 -57 -3 0 -5 43 -4 96 l1 95 -38 -43 c-43 -49 -77 -111 -101
-184 -21 -65 -37 -79 -155 -135 -76 -37 -90 -46 -66 -47 17 0 36 5 44 12 12 8
13 8 7 -1 -14 -24 22 -14 42 11 13 18 25 23 41 19 11 -3 21 -10 21 -15 0 -6 5
-6 14 1 11 9 15 8 20 -6 5 -13 -1 -25 -21 -40 -20 -17 -24 -23 -11 -23 9 0 18
-5 20 -12 3 -9 20 -8 66 6 34 11 62 22 62 26 0 5 20 35 44 67 42 57 44 64 51
152 l7 93 37 15 c20 8 50 20 66 28 79 36 243 67 390 75 118 6 169 14 240 35
167 50 201 58 225 52 18 -4 44 -36 90 -109 78 -123 178 -252 226 -291 l34 -28
0 4225 0 4226 -5120 0 -5120 0 0 -5120z m2761 4593 c-24 -41 -48 -60 -108 -87
-18 -8 -33 -17 -33 -20 0 -7 64 18 78 32 13 12 22 15 22 8 0 -2 -45 -44 -100
-95 -108 -98 -149 -119 -110 -55 12 19 21 37 18 39 -2 2 -18 -5 -35 -16 -47
-30 -80 -132 -64 -196 25 -99 72 -154 216 -256 55 -39 110 -82 122 -95 20 -22
33 -25 125 -29 149 -7 221 12 431 118 41 21 62 24 52 9 -6 -9 -41 -27 -130
-66 l-30 -13 44 -1 c39 0 49 5 93 49 35 36 47 53 41 66 -4 13 -3 16 5 11 7 -4
40 9 74 28 101 55 154 67 341 73 92 3 167 10 167 14 0 19 -50 40 -87 37 -30
-2 -38 -7 -36 -22 1 -18 -4 -18 -95 -11 -110 9 -99 8 -209 5 -73 -2 -89 -6
-130 -32 -30 -19 -87 -40 -151 -55 -57 -14 -102 -26 -100 -28 3 -3 82 -14 126
-17 12 -1 22 -3 22 -5 0 -9 -88 -44 -146 -58 -118 -28 -348 -16 -328 16 3 5
22 9 44 9 51 0 172 38 167 53 -2 7 -51 11 -153 11 l-149 1 -95 47 c-143 70
-219 146 -192 193 7 14 10 9 16 -23 7 -50 33 -71 126 -108 67 -26 71 -26 172
-16 169 18 316 79 366 152 12 18 22 30 22 26 0 -16 -25 -53 -61 -93 -22 -24
-39 -51 -39 -60 0 -13 -3 -14 -8 -6 -6 10 -26 5 -83 -19 -67 -29 -84 -32 -177
-33 -101 0 -103 0 -60 -13 77 -23 395 -15 503 13 33 9 68 24 78 34 24 23 36
81 29 133 -5 40 -4 41 21 34 14 -3 27 -2 29 4 2 7 17 5 41 -5 21 -8 84 -20
140 -25 56 -6 126 -14 156 -19 l53 -8 -6 48 c-5 39 -4 51 9 55 22 9 19 22 -12
49 -19 16 -25 27 -18 34 7 7 46 -2 125 -29 95 -32 128 -48 88 -41 -5 0 -8 -4
-8 -11 0 -20 102 -118 123 -118 10 0 62 11 116 25 116 29 311 46 566 48 l180
2 95 -38 c52 -21 127 -58 167 -83 129 -81 277 -127 307 -96 4 4 24 7 44 8 20
0 91 4 157 8 148 9 276 -4 426 -43 124 -32 229 -68 229 -79 0 -17 -69 -41
-120 -43 -69 -2 -82 1 -50 11 l25 8 -26 1 c-16 1 -26 7 -26 16 0 18 36 11 53
-11 16 -20 48 -18 40 2 -5 12 -1 14 16 8 21 -6 21 -6 5 11 -39 39 -295 79
-502 80 -118 0 -284 -10 -277 -17 4 -4 99 -9 212 -12 113 -3 228 -10 255 -16
59 -13 116 -63 171 -151 30 -49 44 -61 97 -84 98 -44 181 -101 239 -163 47
-51 67 -84 112 -182 9 -19 22 -26 56 -32 25 -3 60 -14 79 -23 18 -10 49 -20
70 -22 20 -3 54 -9 76 -13 35 -7 37 -8 10 -9 -39 -2 -17 -17 37 -26 21 -4 38
-10 38 -15 0 -4 -17 -4 -37 1 -46 10 -54 5 -16 -9 15 -6 52 -20 81 -32 35 -13
52 -16 50 -9 -2 7 -20 19 -39 26 -35 14 -7 12 40 -3 16 -5 22 -4 17 4 -3 6
-19 13 -35 17 -16 3 -46 15 -68 27 -35 19 -36 20 -8 14 55 -12 209 -94 275
-147 36 -30 88 -66 115 -82 28 -16 41 -26 30 -22 -11 4 -42 10 -70 13 -27 3
-59 11 -71 19 -12 7 -57 20 -100 28 -117 23 -176 41 -266 85 -45 22 -83 40
-85 40 -17 0 181 -134 251 -170 42 -22 202 -181 211 -210 4 -14 69 -86 144
-160 l137 -135 74 -150 c41 -82 83 -162 93 -177 29 -44 6 -33 -54 26 -37 36
-69 58 -97 65 -23 7 -47 20 -55 31 -8 11 -17 17 -21 13 -4 -4 -4 0 -1 9 17 44
-54 202 -112 248 -14 11 -47 39 -73 62 -26 24 -64 56 -85 71 -20 16 -34 31
-31 34 2 3 -7 16 -22 30 l-27 24 30 -15 c17 -8 56 -38 88 -66 32 -29 60 -50
63 -48 2 3 -13 28 -36 56 -22 28 -40 60 -40 70 0 21 -88 128 -102 124 -5 -1
-7 2 -4 7 4 5 2 12 -4 16 -5 3 -10 1 -10 -5 0 -6 -5 -8 -11 -4 -8 4 -7 9 2 16
10 7 9 8 -5 4 -20 -7 -49 11 -41 24 3 5 0 12 -6 16 -8 4 -9 3 -5 -4 4 -7 2
-12 -4 -12 -6 0 -13 7 -16 15 -4 10 -13 13 -26 9 -14 -4 -18 -2 -14 5 4 7 1 9
-8 5 -14 -6 -205 90 -217 109 -4 5 -13 6 -20 1 -21 -13 -49 -15 -49 -3 0 5 -4
8 -9 5 -5 -3 -12 5 -15 19 -4 14 -11 25 -17 25 -9 0 -5 -88 7 -148 4 -21 2
-23 -18 -17 -31 10 -31 10 -38 58 -5 33 -8 38 -14 22 -4 -11 -12 -29 -16 -40
-15 -35 -18 -75 -6 -75 6 0 21 -3 34 -6 18 -5 22 -2 23 17 l1 24 7 -25 c6 -22
15 -26 81 -37 118 -19 121 -18 79 21 -26 24 -36 42 -37 65 0 17 4 31 10 31 5
0 8 7 4 15 -8 23 3 18 58 -23 28 -21 80 -59 116 -84 78 -55 130 -105 130 -125
0 -8 4 -12 9 -8 5 3 9 -8 9 -24 -1 -17 5 -37 11 -45 7 -8 10 -20 7 -25 -4 -5
1 -29 10 -53 11 -29 17 -85 19 -173 3 -111 2 -120 -5 -65 -19 131 -30 174 -61
233 -17 34 -38 67 -45 74 -7 8 -19 22 -26 31 -8 9 -27 28 -43 42 -20 17 -25
19 -14 5 43 -52 99 -196 99 -252 0 -25 -8 -41 -29 -61 -21 -19 -36 -48 -50
-101 -11 -41 -23 -76 -26 -79 -9 -9 -5 85 5 136 9 41 8 55 -9 96 -26 60 -109
148 -176 186 -73 42 -91 38 -44 -9 22 -21 39 -48 39 -60 0 -12 -4 -19 -10 -16
-5 3 -10 2 -10 -4 0 -5 5 -13 10 -16 6 -3 10 -10 10 -15 0 -5 -19 10 -42 33
-51 50 -144 109 -213 133 -74 27 -205 24 -272 -5 -28 -12 -62 -34 -74 -48
l-24 -25 60 7 c33 3 70 8 81 10 37 8 211 -13 240 -28 l28 -15 -42 -7 c-23 -4
-42 -9 -42 -12 0 -3 11 -14 25 -25 24 -19 25 -22 10 -44 -8 -13 -15 -32 -15
-44 0 -24 -13 -25 -47 -3 -17 12 -53 18 -113 21 -79 4 -94 2 -146 -22 -31 -14
-59 -24 -62 -21 -9 9 50 76 76 87 15 5 61 14 102 18 64 6 68 7 25 9 -27 0 -77
-3 -109 -9 -70 -11 -78 -7 -95 51 -11 38 -11 45 8 70 12 16 21 30 21 32 0 9
-56 4 -67 -5 -10 -8 -13 -5 -13 10 0 11 -2 27 -5 34 -12 31 72 86 230 151 33
14 71 27 84 29 18 2 25 10 28 32 3 24 -5 37 -46 77 -34 32 -51 57 -51 73 l0
24 51 -19 c48 -19 80 -18 50 0 -7 5 -12 10 -11 12 4 10 -13 59 -21 59 -5 0 -9
6 -9 13 -1 21 -144 187 -162 187 -5 0 -2 -8 8 -17 30 -31 55 -100 64 -185 13
-107 12 -121 -1 -112 -8 4 -9 -1 -4 -17 l7 -24 -20 24 c-12 13 -24 31 -27 41
-12 38 -153 33 -195 -5 -22 -20 -27 -6 -10 26 17 30 4 38 -37 24 -23 -8 -42
-10 -47 -4 -11 10 -46 12 -46 3 0 -4 16 -28 35 -54 33 -45 46 -78 26 -66 -5 4
-7 -4 -4 -16 4 -19 -1 -16 -27 15 -34 41 -55 48 -45 17 8 -25 -1 -25 -50 3
-21 12 -42 32 -45 44 -4 16 -72 83 -84 83 -1 0 -1 -17 0 -37 2 -21 0 -28 -2
-15 -9 39 -45 44 -284 43 -177 -2 -230 -5 -247 -16 -15 -10 -24 -11 -29 -4 -4
6 0 15 7 20 10 6 3 9 -21 9 -46 0 -110 18 -127 36 -8 8 -21 14 -29 14 -12 0
-11 -6 6 -30 12 -17 27 -29 34 -27 6 2 48 -15 93 -38 65 -34 84 -41 93 -30 6
7 22 15 36 18 19 3 29 -2 45 -24 11 -16 37 -33 58 -40 33 -10 45 -8 87 11 86
38 135 42 210 19 39 -12 64 -25 61 -32 -2 -8 -48 -16 -126 -22 l-123 -10 79
-68 c90 -76 130 -124 116 -138 -6 -6 -29 16 -62 59 -61 80 -147 142 -197 142
-18 0 -64 11 -102 25 -38 14 -77 25 -86 25 -9 0 -43 11 -76 25 -67 28 -70 29
-70 15 0 -5 20 -21 45 -35 24 -15 56 -41 71 -58 22 -26 25 -37 19 -72 -20
-124 36 -250 121 -271 25 -6 113 2 122 11 3 2 -1 11 -8 20 -9 10 -31 15 -75
15 -46 0 -66 4 -77 18 -16 17 -38 78 -45 122 -3 14 -7 36 -9 50 -3 14 -7 42
-10 63 l-6 38 38 -16 c22 -10 59 -24 83 -32 42 -15 122 -86 176 -158 40 -52
84 -188 55 -170 -6 3 -7 -1 -4 -10 4 -9 -1 -23 -9 -33 -9 -9 -15 -21 -15 -27
2 -22 -48 -36 -119 -33 -39 2 -74 6 -77 9 -3 2 -8 25 -12 49 -7 40 -6 44 8 32
11 -9 18 -10 23 -2 6 9 -50 40 -73 40 -29 0 -106 132 -151 261 -34 96 -49 123
-89 166 -22 23 -37 44 -34 47 3 3 0 6 -6 6 -18 0 -15 -11 18 -59 52 -77 82
-147 87 -209 5 -51 3 -62 -15 -80 -18 -18 -21 -19 -25 -3 -3 14 -14 17 -55 15
-29 -2 -56 -5 -61 -8 -5 -4 -12 -2 -16 3 -3 6 -12 8 -20 5 -16 -6 -55 12 -72
35 -7 9 -34 46 -59 84 -26 37 -52 67 -60 67 -7 0 -18 -19 -24 -42 -6 -24 -15
-54 -19 -68 -5 -18 -2 -33 15 -57 12 -18 29 -65 39 -105 9 -40 19 -81 22 -90
3 -15 -2 -18 -31 -18 -20 0 -36 1 -36 3 -1 1 -5 47 -10 102 -20 214 -21 216
-194 300 -72 35 -156 71 -186 80 -80 23 -47 2 45 -29 93 -31 188 -82 182 -99
-2 -7 -57 -30 -123 -52 -65 -22 -134 -48 -151 -58 -18 -10 -66 -30 -107 -46
-81 -31 -146 -75 -146 -98 0 -8 -20 -36 -45 -61 -46 -47 -122 -82 -177 -82
-31 0 -62 37 -53 62 4 9 45 27 94 42 49 14 95 34 102 43 8 9 10 14 4 11 -15
-7 -49 -21 -60 -23 -35 -7 -115 -15 -115 -11 0 2 8 12 17 22 17 16 15 17 -21
10 -24 -5 -36 -4 -32 2 4 6 -3 8 -16 5 -45 -9 65 76 157 123 50 25 101 55 114
67 34 31 136 157 151 187 12 25 12 25 -18 -3 -38 -36 -86 -34 -115 4 -26 36
-18 56 62 147 38 42 71 87 75 100 7 20 5 21 -17 13 -14 -6 -28 -7 -33 -3 -4 4
-4 2 -1 -5 8 -12 -50 -66 -63 -58 -4 3 -7 -3 -6 -13 1 -15 -8 -17 -75 -14
-130 6 -250 -37 -337 -119 -53 -51 -70 -83 -78 -151 -7 -59 18 -169 42 -189 8
-6 14 -16 14 -22 0 -6 -11 0 -25 13 -14 13 -25 29 -25 35 0 6 -7 20 -16 31 -8
10 -13 13 -9 6 4 -7 0 -24 -9 -37 -12 -17 -12 -25 -3 -28 6 -2 -4 -4 -23 -4
-19 0 -30 2 -25 4 16 5 6 70 -12 85 -14 11 -15 8 -8 -22 5 -26 4 -32 -4 -24
-7 6 -13 21 -14 33 -1 11 -5 21 -10 21 -5 0 -5 -9 -2 -20 4 -12 2 -20 -5 -20
-12 0 -9 -37 4 -58 18 -30 -30 12 -69 59 -22 27 -45 54 -50 61 -46 55 -78 117
-91 175 -9 38 -21 78 -26 90 -8 16 -5 39 12 95 28 91 51 138 106 210 61 79
116 123 212 171 117 58 160 59 337 12 150 -39 223 -73 300 -136 51 -42 77 -45
32 -3 -15 14 -24 30 -21 36 5 8 13 5 23 -8 9 -10 28 -28 41 -39 20 -16 22 -16
11 -2 -8 9 -11 20 -8 23 3 3 15 -8 28 -25 13 -17 29 -31 36 -31 7 0 17 -10 24
-21 9 -17 8 -23 -2 -30 -8 -5 -9 -9 -4 -9 21 0 35 17 29 33 -3 9 -10 17 -14
17 -5 0 -11 8 -14 18 -4 10 -31 44 -61 75 -128 132 -401 211 -593 171 -83 -17
-209 -78 -284 -139 -119 -95 -208 -278 -208 -426 0 -80 17 -162 32 -152 6 3 8
0 6 -8 -3 -8 1 -27 9 -42 8 -16 13 -31 10 -33 -2 -2 -19 28 -38 68 -32 69 -34
78 -34 185 0 62 -2 113 -5 113 -3 0 -36 -9 -73 -20 -126 -36 -240 -113 -382
-262 -92 -95 -183 -200 -208 -240 -32 -52 -61 -186 -58 -270 2 -54 148 -168
298 -232 74 -32 56 -34 -23 -2 -144 58 -167 73 -229 145 l-45 53 -2 -64 c-1
-35 -1 -76 -1 -93 1 -25 0 -27 -9 -11 -13 23 -31 227 -25 281 9 79 50 206 86
265 50 82 130 162 304 302 81 65 147 121 147 123 0 8 -38 -4 -78 -24 -47 -24
-125 -52 -130 -46 -2 2 31 20 74 40 118 56 208 120 307 218 50 48 110 102 134
118 23 17 43 32 43 34 0 3 -30 -7 -67 -21 -38 -14 -97 -36 -133 -49 -36 -12
-115 -43 -175 -68 -132 -54 -177 -53 -285 4 -19 11 -43 19 -52 19 -10 0 -18 5
-18 12 0 9 -3 9 -11 1 -13 -13 4 -35 31 -41 8 -2 17 -7 20 -11 3 -5 30 -17 60
-29 53 -20 54 -21 20 -21 -51 -1 -109 30 -158 82 -23 26 -45 47 -49 47 -4 0
-19 12 -35 27 -31 30 -46 26 -28 -7 11 -21 11 -21 -19 -6 -17 9 -35 26 -41 37
-18 33 -51 62 -60 53 -21 -21 94 -274 156 -345 13 -15 10 -18 -33 -28 -68 -17
-123 -52 -177 -112 -25 -28 -46 -54 -46 -58 0 -3 -18 -6 -40 -7 -27 0 -39 3
-36 11 2 6 -5 11 -17 11 -33 -1 -32 30 3 87 l32 52 -31 -29 c-32 -30 -101
-160 -101 -190 0 -9 -5 -16 -11 -16 -20 0 -3 87 30 155 20 40 48 78 72 97 21
17 38 33 36 35 -5 4 -107 -25 -134 -39 -12 -6 -28 -8 -36 -5 -8 3 -24 -1 -36
-9 -11 -8 -21 -12 -21 -7 -1 4 -10 -3 -20 -16 -13 -14 -20 -18 -20 -9 0 7 13
29 30 48 16 19 29 44 30 54 0 10 -20 56 -45 102 -25 45 -45 87 -45 92 0 6 23
4 58 -5 68 -18 209 -12 314 13 85 21 87 35 18 124 -38 48 -50 91 -50 172 0 91
28 171 96 273 84 126 151 195 199 205 94 20 270 72 303 90 21 11 48 28 62 39
31 25 33 26 21 4z m1289 -261 c0 -4 -9 -8 -20 -8 -11 0 -20 4 -20 8 0 4 9 8
20 8 11 0 20 -4 20 -8z m-1530 -22 c-6 -11 -13 -20 -16 -20 -2 0 0 9 6 20 6
11 13 20 16 20 2 0 0 -9 -6 -20z m3640 -382 c0 -9 -5 -20 -12 -24 -7 -5 -8 -3
-3 6 6 10 4 12 -8 7 -12 -4 -14 -2 -10 10 4 10 2 14 -5 9 -6 -4 -10 1 -9 12 1
15 5 17 24 8 13 -6 23 -19 23 -28z m-3157 -45 c-13 -2 -35 -2 -50 0 -16 2 -5
4 22 4 28 0 40 -2 28 -4z m790 -10 c-7 -2 -19 -2 -25 0 -7 3 -2 5 12 5 14 0
19 -2 13 -5z m127 -22 c81 -24 156 -56 165 -71 5 -9 2 -9 -11 -2 -48 24 -95
42 -174 65 -47 14 -76 26 -65 26 11 1 49 -8 85 -18z m2694 -233 c11 -10 17
-20 15 -23 -3 -2 -23 14 -45 37 -35 38 -23 32 30 -14z m-5118 -51 c-58 -75
-72 -176 -39 -273 20 -60 106 -150 176 -183 41 -20 58 -23 108 -17 32 3 86 17
120 31 33 14 117 39 187 55 70 16 182 45 250 64 138 40 135 40 127 27 -7 -13
-167 -65 -307 -100 -132 -34 -172 -52 -247 -111 l-53 -42 -94 6 c-95 6 -150
23 -176 53 -11 14 -10 15 11 8 16 -5 21 -4 17 4 -4 6 -13 11 -19 12 -23 1 -85
88 -114 158 -28 71 -43 88 -43 50 0 -32 50 -125 87 -162 l33 -34 -26 -24 -26
-24 -19 24 c-14 17 -19 19 -19 7 0 -9 4 -16 9 -16 6 0 8 -9 6 -19 -2 -12 18
-45 57 -91 33 -39 57 -77 55 -84 -3 -7 3 -27 14 -45 20 -34 12 -43 -11 -12 -7
11 -17 18 -22 15 -4 -3 -5 3 -1 12 4 10 2 15 -3 11 -13 -7 -47 49 -39 63 3 6
1 10 -6 10 -7 0 -10 3 -6 6 3 4 -1 21 -10 38 -14 27 -17 29 -23 12 -5 -16 -8
-14 -19 15 -7 19 -17 43 -21 54 -53 127 -58 230 -16 360 22 71 37 99 69 133
49 50 68 56 33 9z m5164 -7 c6 -11 8 -20 6 -20 -3 0 -10 9 -16 20 -6 11 -8 20
-6 20 3 0 10 -9 16 -20z m40 -85 c0 -5 -5 -3 -10 5 -5 8 -10 20 -10 25 0 6 5
3 10 -5 5 -8 10 -19 10 -25z m-2753 -103 c0 -10 -11 -26 -23 -35 -20 -15 -22
-15 -20 1 1 14 32 52 42 52 1 0 2 -8 1 -18z m3085 -24 c-10 -10 -10 -8 -2 37
1 6 4 2 7 -9 3 -10 0 -23 -5 -28z m-4452 -2 c0 -2 -26 -23 -57 -47 -71 -53
-143 -120 -143 -133 0 -5 10 0 23 11 28 27 206 143 218 143 5 0 -6 -15 -25
-32 -45 -44 -215 -234 -247 -278 -37 -49 -88 -153 -115 -234 -13 -39 -29 -73
-36 -77 -13 -8 -39 -75 -41 -104 -1 -11 -7 -26 -13 -33 -12 -11 -11 -35 2 -87
3 -13 -1 -10 -11 8 -9 15 -20 27 -26 27 -14 0 -49 -42 -116 -139 -57 -81 -58
-84 -56 -145 l3 -61 -16 32 c-27 54 -41 49 -64 -23 -11 -37 -20 -83 -20 -103
0 -20 -5 -43 -10 -51 -24 -37 -3 184 26 272 22 66 83 157 152 225 l59 58 6 95
c3 61 13 114 26 148 12 29 21 55 21 58 0 3 -17 -16 -39 -43 -78 -99 -241 -211
-334 -230 -16 -3 -34 -14 -40 -24 -7 -11 -14 -19 -17 -19 -10 0 2 70 13 77 6
3 7 1 3 -5 -4 -7 -2 -12 3 -12 10 0 15 14 12 32 0 5 3 7 8 5 4 -1 41 32 82 74
72 74 198 182 290 250 94 68 246 194 304 250 55 54 175 132 175 115z m370 -80
c0 -2 -16 -27 -35 -56 -23 -34 -37 -69 -41 -103 l-7 -52 -10 35 c-6 23 -5 48
3 75 14 48 55 105 76 105 7 0 14 -2 14 -4z m85 -26 c-8 -16 -20 -53 -27 -82
-11 -51 -11 -52 -19 -23 -5 16 -6 40 -2 54 4 18 3 22 -7 16 -9 -5 -11 -4 -6 4
4 6 12 9 17 6 5 -4 9 -1 9 4 0 11 36 51 45 51 3 0 -1 -13 -10 -30z m-82 -65
c-3 -9 -8 -14 -10 -11 -3 3 -2 9 2 15 9 16 15 13 8 -4z m3725 -46 c1 -18 0
-30 -3 -27 -10 10 -17 71 -8 65 5 -3 10 -20 11 -38z m-111 -66 c-3 -10 -5 -4
-5 12 0 17 2 24 5 18 2 -7 2 -21 0 -30z m-3519 -73 c36 -86 36 -91 -2 -17 -38
73 -59 131 -34 92 7 -11 23 -45 36 -75z m1523 65 c3 2 11 -5 18 -16 12 -21 12
-21 -18 -3 -17 10 -31 22 -31 27 0 5 6 4 13 -2 8 -6 16 -9 18 -6z m2137 -3
c-13 -9 -26 -21 -30 -26 -4 -6 -8 1 -8 16 0 23 4 27 30 26 l30 -1 -22 -15z
m539 -46 c14 -22 18 -38 12 -47 -7 -11 -9 -10 -9 4 0 11 -4 15 -12 11 -7 -5
-9 -2 -5 9 3 8 -1 21 -9 27 -8 7 -14 16 -14 21 0 18 16 8 37 -25z m-5422 -25
c-3 -5 -21 -15 -40 -21 -29 -10 -33 -14 -22 -25 8 -7 25 -11 40 -8 17 3 27 1
27 -7 0 -7 8 -9 20 -5 11 4 20 2 20 -4 0 -14 -32 -29 -49 -23 -8 3 -11 0 -7
-6 11 -17 -58 -5 -126 22 -53 22 -130 67 -124 73 1 1 28 -5 61 -13 63 -17 123
-13 165 11 29 17 44 19 35 6z m1262 -33 c-3 -8 -6 -5 -6 6 -1 11 2 17 5 13 3
-3 4 -12 1 -19z m593 17 c0 -2 -10 -10 -22 -16 -21 -11 -22 -11 -9 4 13 16 31
23 31 12z m-1170 -42 c-12 -21 -33 -51 -47 -68 l-25 -30 23 40 c30 52 59 95
65 95 3 0 -4 -17 -16 -37z m483 -73 c4 -30 3 -38 -3 -25 -8 19 -14 83 -6 74 2
-2 6 -24 9 -49z m-1156 -8 c-10 -10 -17 -22 -17 -26 0 -5 -19 -31 -42 -60 -23
-28 -43 -53 -45 -55 -2 -2 -5 -2 -8 1 -5 5 113 158 123 158 3 0 -2 -8 -11 -18z
m1414 -32 c10 -6 19 -18 19 -28 0 -15 2 -15 10 -2 9 14 11 13 14 -9 0 -6 7
-16 15 -23 12 -11 13 -10 7 5 -3 11 13 0 39 -24 49 -47 52 -51 30 -43 -10 4
-15 0 -15 -13 0 -25 -49 -53 -75 -43 -12 4 -27 16 -35 26 -10 12 -11 15 -2 10
10 -6 11 -1 6 21 -4 15 -10 35 -14 43 -4 8 -6 23 -5 33 2 9 -1 17 -7 17 -6 0
-8 7 -5 14 4 11 1 13 -10 9 -11 -4 -14 -2 -9 5 9 15 12 15 37 2z m-281 -71 c0
-21 -22 -61 -29 -53 -10 12 -31 86 -31 109 0 15 7 11 30 -15 17 -18 30 -37 30
-41z m128 -37 c58 -57 89 -108 103 -170 7 -31 4 -35 -31 -57 -56 -36 -61 -49
-14 -41 42 8 128 49 158 75 18 15 18 15 5 -9 -7 -14 -12 -29 -11 -33 3 -12
-28 -68 -59 -107 -33 -39 -37 -66 -11 -74 25 -8 120 -8 167 -1 45 6 32 -2 -48
-31 -47 -17 -48 -18 -42 -51 l6 -34 -93 -43 c-51 -24 -110 -49 -132 -56 -23
-7 -67 -40 -112 -82 -61 -58 -82 -72 -120 -79 -30 -6 -63 -22 -90 -44 -66 -54
-88 -91 -88 -146 0 -64 -16 -51 -17 14 l-1 52 -8 -40 c-5 -27 -4 -51 5 -72 13
-31 47 -58 58 -47 3 3 20 3 37 -1 l31 -7 -22 -18 c-15 -14 -30 -17 -52 -13
-21 4 -28 3 -23 -5 4 -7 14 -12 21 -12 33 0 63 -77 73 -190 l7 -75 71 3 71 3
35 -42 c33 -40 38 -42 99 -45 35 -2 71 -4 79 -5 45 -3 90 5 90 18 0 7 10 14
23 14 22 1 28 1 60 -8 12 -4 17 0 17 13 0 11 9 25 20 32 18 11 19 10 15 -16
-2 -15 -7 -36 -10 -48 -5 -15 -2 -21 9 -21 9 0 16 6 16 13 0 12 21 24 53 30 9
2 17 -1 17 -8 0 -6 3 -8 6 -5 4 4 -5 25 -20 47 -14 22 -26 48 -26 58 0 11 20
35 45 55 42 32 44 35 23 41 -22 5 -64 63 -53 74 3 3 5 1 5 -5 0 -5 7 -10 15
-10 8 0 15 6 15 14 0 7 5 13 10 13 6 0 10 -6 10 -13 0 -18 58 -16 69 2 5 7 14
10 20 7 6 -4 11 -1 11 7 0 10 8 13 25 9 14 -2 22 -9 19 -14 -3 -5 -13 -7 -21
-4 -8 3 -12 2 -9 -3 3 -5 -4 -11 -17 -15 -17 -5 -19 -8 -8 -15 11 -7 9 -10
-10 -13 -19 -2 -20 -5 -8 -10 21 -8 136 50 204 102 50 39 72 45 42 12 -9 -10
-14 -27 -11 -39 3 -11 0 -31 -6 -43 l-12 -22 31 18 c17 10 54 40 83 66 28 26
56 44 62 41 6 -3 8 -2 3 2 -4 5 0 16 9 26 13 14 26 17 58 13 56 -7 265 65 368
128 64 38 82 45 109 39 18 -4 64 -3 103 0 39 4 72 6 73 5 1 -1 5 -19 8 -39 5
-31 4 -36 -9 -31 -9 3 -16 10 -16 16 0 5 -4 7 -9 4 -5 -4 -11 0 -14 6 -4 10
-7 10 -18 0 -11 -11 -10 -14 8 -18 26 -7 42 -66 24 -88 -6 -7 -8 -15 -5 -19 3
-3 1 -14 -5 -24 -10 -17 -10 -16 -11 5 0 20 -19 30 -33 16 -8 -9 4 -35 13 -29
8 5 7 -29 -6 -143 -3 -28 -1 -66 5 -82 11 -34 5 -39 -16 -12 -13 15 -14 14 -8
-11 4 -19 1 -29 -10 -33 -25 -10 -17 -22 11 -16 24 4 25 3 15 -17 -7 -12 -9
-27 -5 -33 4 -7 3 -8 -4 -4 -7 4 -12 1 -12 -9 0 -10 6 -15 13 -12 16 6 41 -29
27 -38 -6 -3 -10 2 -10 12 -1 13 -5 11 -16 -9 -8 -16 -21 -28 -29 -28 -8 0
-15 -8 -15 -17 -1 -15 -4 -14 -20 6 -20 24 -23 22 -21 -14 0 -11 -2 -15 -5 -8
-3 7 -12 9 -20 6 -19 -7 -18 7 4 31 20 23 65 126 58 134 -8 7 -27 -9 -24 -21
4 -20 -12 -67 -22 -67 -13 0 -13 7 0 31 7 13 7 19 0 19 -5 0 -10 -6 -10 -12 0
-9 -4 -8 -10 2 -7 11 -10 3 -10 -28 0 -26 4 -41 10 -37 19 12 10 -7 -12 -25
-15 -12 -27 -15 -34 -9 -8 6 -13 3 -17 -10 -5 -21 -47 -49 -47 -31 0 5 -4 10
-10 10 -18 0 -11 -26 14 -49 22 -20 24 -21 23 -4 -2 13 4 17 21 15 12 -2 22 2
22 7 0 6 5 11 10 11 6 0 10 -9 10 -19 0 -10 7 -21 15 -25 8 -3 15 -12 15 -20
0 -8 6 -17 13 -19 6 -3 2 -6 -10 -6 -12 -1 -24 -9 -28 -21 -7 -23 -21 -26 -28
-7 -4 9 -6 9 -6 -1 -1 -8 8 -16 18 -19 22 -6 37 -33 22 -42 -11 -7 22 -51 38
-51 6 0 11 -6 11 -13 0 -7 20 -33 45 -57 25 -24 45 -49 45 -54 0 -5 8 -19 19
-30 48 -54 93 -130 88 -151 -3 -17 0 -22 10 -18 11 4 12 -1 7 -23 -7 -26 -6
-28 9 -15 14 11 17 11 17 0 0 -22 -17 -42 -29 -35 -7 4 -11 -1 -11 -13 0 -11
-4 -23 -10 -26 -5 -3 -10 -15 -10 -26 0 -10 -4 -19 -8 -19 -5 0 -8 -10 -8 -22
1 -18 -4 -23 -21 -22 -25 1 -30 -15 -12 -33 26 -26 -23 -46 -51 -20 -12 10
-12 9 -1 -6 18 -24 5 -34 -22 -18 -15 10 -22 11 -25 2 -3 -8 -21 -10 -61 -5
-46 5 -58 3 -58 -8 0 -10 9 -13 30 -10 22 4 28 1 22 -8 -5 -9 -2 -10 12 -6 11
4 31 3 43 -2 22 -8 20 -11 -32 -46 -57 -37 -64 -50 -72 -131 -2 -21 -8 -29
-20 -27 -9 2 -16 -4 -16 -13 0 -20 -24 -45 -43 -45 -20 0 -58 -65 -46 -77 6
-6 -9 -23 -37 -44 -25 -19 -57 -52 -70 -75 -13 -22 -35 -47 -49 -54 -14 -7
-34 -28 -45 -47 -10 -18 -24 -33 -30 -33 -6 0 -8 -10 -4 -25 4 -15 2 -25 -5
-25 -6 0 -10 -3 -10 -7 4 -26 -4 -41 -22 -46 -14 -4 -20 -11 -16 -21 3 -8 -1
-20 -9 -26 -8 -7 -14 -23 -14 -35 0 -13 -7 -25 -15 -29 -8 -3 -15 -11 -15 -18
0 -8 -22 -35 -50 -62 -27 -27 -50 -53 -50 -58 0 -14 -59 -68 -75 -68 -25 0
-75 -50 -72 -73 1 -16 -3 -21 -15 -19 -10 2 -18 -2 -18 -8 0 -5 6 -10 13 -10
8 0 8 -3 -2 -9 -8 -5 -20 -7 -26 -4 -18 6 -176 -58 -204 -83 -14 -13 -43 -24
-75 -28 -99 -13 -235 -75 -228 -105 1 -8 -7 -7 -28 4 l-29 15 -7 -50 c-5 -40
-10 -50 -25 -50 -16 0 -18 -7 -15 -44 2 -27 11 -51 25 -65 19 -19 21 -20 21
-3 0 11 8 34 17 52 14 30 17 32 23 14 4 -10 3 -32 -3 -48 -9 -26 -7 -32 19
-54 l28 -25 11 24 c5 13 18 24 29 24 11 0 22 7 24 15 5 13 3 13 -12 1 -22 -18
-37 -3 -25 27 5 14 17 22 33 22 13 0 26 5 28 12 3 7 12 9 23 4 16 -6 17 -9 5
-16 -24 -15 -6 -11 54 11 31 12 53 25 51 29 -3 4 2 10 10 13 9 4 12 1 8 -9 -7
-19 56 -19 83 1 19 14 18 14 -3 15 -13 0 -23 5 -23 10 0 7 -6 7 -20 0 -16 -8
-18 -8 -14 4 3 8 13 16 23 19 18 4 87 -5 129 -18 25 -8 32 12 6 22 -12 4 -11
8 8 18 13 6 28 9 33 5 16 -10 56 -10 50 1 -4 5 -16 9 -29 9 -30 0 -61 34 -51
57 6 16 8 16 16 -4 11 -30 59 -32 66 -3 5 17 14 20 59 20 30 0 53 3 53 8 -6
34 1 40 31 29 17 -6 30 -15 30 -19 0 -13 53 -9 71 5 9 7 18 21 20 32 4 16 13
20 49 21 25 0 55 6 67 12 12 7 31 12 43 12 17 0 19 -4 14 -25 -4 -15 -2 -25 5
-25 6 0 11 -7 11 -15 0 -8 6 -15 13 -15 8 0 7 -4 -3 -10 -13 -9 -13 -10 0 -10
8 0 21 -9 27 -19 11 -17 10 -21 -7 -26 -18 -6 -19 -13 -11 -68 0 -5 6 -5 13
-1 7 4 8 3 4 -5 -4 -6 -12 -9 -17 -6 -5 4 -9 2 -9 -4 0 -6 -6 -9 -12 -7 -7 1
-10 1 -5 -1 11 -7 9 -43 -3 -43 -5 0 -10 7 -10 15 0 22 -5 19 -50 -25 -22 -22
-46 -40 -52 -40 -7 0 -3 -6 8 -14 10 -8 16 -18 11 -22 -4 -4 -13 -2 -19 4 -8
8 -14 7 -24 -6 -11 -15 -16 -15 -36 -4 -17 10 -16 7 5 -11 21 -18 28 -31 25
-51 l-3 -28 -38 26 c-21 14 -39 26 -41 26 -2 0 -3 -11 -3 -25 0 -17 16 -43 49
-78 27 -29 59 -70 70 -92 l21 -40 -41 37 c-61 55 -94 69 -142 62 -22 -4 -43
-10 -46 -15 -3 -5 9 -6 25 -3 42 9 105 -30 184 -111 66 -69 77 -76 77 -47 0
11 6 7 19 -15 14 -22 25 -30 38 -27 12 3 35 -7 61 -28 l41 -33 0 -82 c1 -45
-3 -85 -9 -88 -24 -15 -6 -116 34 -195 17 -33 28 -90 17 -90 -12 0 -85 97
-111 148 -14 26 -26 73 -30 115 -11 115 -60 242 -105 271 -13 9 -38 36 -54 60
-22 31 -48 53 -88 72 -55 28 -60 28 -317 36 -294 9 -309 12 -447 89 -160 90
-214 176 -229 362 -10 125 -43 245 -85 312 -43 70 -75 144 -141 332 -36 101
-92 243 -125 315 -62 135 -112 267 -124 325 l-6 32 109 -55 c99 -50 111 -58
131 -100 13 -25 25 -72 28 -105 l6 -61 19 31 c17 26 18 37 10 73 -5 24 -13 51
-17 61 -4 10 -3 17 4 17 15 0 50 -77 51 -110 1 -22 2 -23 11 -7 6 10 8 44 6
77 -5 54 -3 63 27 105 18 25 36 42 41 38 4 -5 4 3 0 16 -5 16 -4 21 4 17 6 -4
11 -2 11 3 0 6 6 11 13 11 8 0 19 12 25 26 7 14 17 22 22 19 5 -3 7 0 4 8 -6
18 18 28 37 16 11 -6 18 4 31 44 33 98 21 110 -40 42 -22 -25 -42 -40 -44 -33
-3 8 -12 4 -26 -10 -29 -29 -72 -30 -72 -2 0 38 -30 81 -68 97 -33 14 -35 17
-17 24 22 8 9 10 -87 13 -25 0 -49 4 -52 7 -9 8 -56 -1 -56 -12 0 -4 -12 -14
-27 -21 -16 -7 -32 -23 -38 -35 -5 -12 -17 -24 -27 -26 -27 -8 -22 24 10 62
26 31 30 33 53 21 22 -12 21 -10 -5 15 -26 24 -31 26 -54 13 -32 -17 -61 -60
-44 -66 14 -4 16 -38 2 -47 -5 -3 -10 -1 -10 6 0 7 -6 4 -14 -7 -22 -29 -28
-12 -11 29 18 45 4 58 -30 27 -13 -12 -31 -20 -41 -19 -11 2 -40 -1 -66 -5
-41 -6 -48 -11 -48 -30 0 -23 29 -49 88 -80 27 -14 32 -14 32 -2 0 8 -6 16
-12 19 -7 2 -10 7 -7 11 4 4 23 -4 43 -17 52 -36 125 -51 215 -44 86 7 101 10
117 20 7 4 14 0 18 -8 3 -8 17 -15 32 -15 19 0 25 -4 21 -15 -4 -8 -1 -17 5
-21 7 -4 8 -3 4 4 -5 8 0 12 13 12 26 0 27 -16 2 -23 -11 -3 -35 6 -55 19 -37
25 -69 23 -64 -5 2 -9 17 -18 33 -21 23 -4 29 -10 27 -25 -8 -47 -76 -61 -114
-23 l-21 21 21 18 c12 9 22 19 22 21 0 2 -60 3 -132 3 -120 0 -138 2 -181 24
-50 24 -137 119 -137 149 0 39 93 351 131 440 22 53 58 144 79 202 21 58 43
116 48 130 57 133 72 185 63 211 -5 15 -6 30 -3 34 4 4 0 6 -8 4 -21 -4 -60
19 -60 36 0 8 -6 12 -14 9 -7 -3 -23 7 -35 23 l-22 27 -55 -28 c-63 -33 -132
-107 -169 -181 -13 -27 -25 -44 -25 -36 0 7 15 40 32 74 18 33 55 126 83 206
44 128 53 146 74 149 15 2 21 0 17 -7 -4 -7 1 -11 13 -11 12 0 21 4 21 9 0 5
9 13 20 16 11 4 18 10 15 15 -3 5 -2 10 3 12 4 1 18 17 31 33 21 26 23 27 18
7 -3 -12 -1 -20 4 -16 5 3 9 15 9 27 0 15 3 18 11 10 7 -7 11 -52 11 -120 -1
-59 2 -137 7 -173 8 -64 8 -63 10 45 3 111 17 185 37 192 7 2 15 -9 19 -24 4
-15 10 -22 12 -15 3 7 2 20 -2 30 -13 30 -14 62 -2 59 17 -3 27 -19 27 -44 0
-25 1 -26 24 -17 9 3 16 17 16 30 0 13 5 24 10 24 6 0 10 6 10 14 0 9 -7 13
-17 11 -14 -2 -19 5 -20 31 -2 19 0 34 5 34 9 0 32 72 32 103 0 21 44 97 56
97 3 0 -1 -9 -9 -21 -8 -11 -12 -30 -9 -41 3 -12 1 -19 -4 -16 -5 3 -10 -13
-11 -36 -1 -31 1 -36 8 -21 7 17 8 16 7 -10 -3 -77 4 -76 28 3 13 46 33 100
44 121 10 21 18 47 17 58 -2 28 -39 22 -54 -8 -7 -13 -13 -20 -13 -15 0 5 -7
2 -17 -5 -15 -13 -15 -12 -3 11 7 14 21 31 31 38 10 7 21 29 25 50 10 53 30
89 54 95 16 4 20 1 16 -11 -19 -74 -18 -78 13 -29 17 26 31 51 31 55 1 4 20
19 43 33 220 138 219 137 166 224 -18 30 -36 55 -39 55 -3 0 -18 -41 -35 -91
-29 -89 -30 -90 -81 -115 -61 -30 -93 -23 -124 28 -21 35 -17 55 6 24 14 -20
14 -20 14 0 0 10 -7 28 -15 38 -8 10 -12 23 -8 29 3 5 0 13 -7 17 -7 4 -9 13
-6 19 4 6 11 9 16 6 5 -3 11 7 15 22 3 16 16 45 29 66 29 47 33 38 43 -79 3
-47 9 -87 14 -89 9 -6 49 97 49 126 0 11 12 32 26 46 23 23 26 32 20 70 l-6
43 30 -15 c17 -9 56 -41 88 -73z m-256 40 c-7 -2 -12 -9 -12 -17 0 -7 -7 -19
-17 -26 -9 -8 -14 -9 -12 -4 20 46 33 63 42 58 8 -5 7 -8 -1 -11z m-1141 -65
c-7 -12 -36 -40 -64 -62 -46 -36 -153 -186 -141 -197 2 -3 -13 -12 -32 -22
l-37 -17 27 32 c15 18 41 59 58 93 17 34 39 72 50 86 21 27 140 120 147 114 2
-2 -1 -14 -8 -27z m5545 -14 c53 -52 89 -107 79 -123 -3 -6 -1 -10 5 -10 5 0
18 -13 29 -30 10 -16 21 -27 25 -22 4 4 7 3 6 -3 -5 -22 1 -29 11 -15 9 13 10
12 5 -2 -3 -11 0 -18 7 -18 7 0 18 -9 25 -20 23 -37 -5 -20 -59 36 -82 85 -81
84 -70 84 6 0 11 5 11 11 0 5 -5 7 -11 4 -12 -8 -51 24 -44 36 3 4 -10 23 -29
42 -19 19 -32 38 -29 41 3 3 0 12 -7 21 -26 31 -1 14 46 -32z m-4008 -128
c-16 -35 -28 -31 -28 8 0 17 -7 41 -15 51 -28 37 -15 38 20 2 31 -32 33 -39
23 -61z m-1297 57 c-5 -9 -19 -26 -31 -37 -12 -11 -27 -29 -33 -40 -9 -19 -9
-19 9 -5 10 8 30 23 43 35 l24 20 -24 -37 c-13 -20 -28 -34 -33 -31 -5 4 -6 1
-2 -6 4 -6 -13 -62 -38 -125 -25 -62 -46 -121 -47 -132 0 -18 -1 -18 -8 0 -6
15 -10 10 -20 -25 -7 -24 -13 -46 -13 -49 0 -3 -4 -10 -9 -16 -14 -17 -48
-183 -42 -203 4 -14 3 -14 -6 -1 -17 24 -13 168 9 257 18 77 56 182 82 228 11
20 11 20 -11 1 -58 -52 -126 -192 -156 -318 -19 -82 -8 -156 37 -247 18 -36
34 -70 37 -76 14 -30 -61 69 -82 108 l-25 46 -16 -40 c-9 -22 -21 -37 -26 -34
-16 10 -12 -122 5 -154 8 -16 28 -40 45 -55 37 -31 159 -70 199 -64 21 3 28 1
24 -9 -3 -7 0 -13 6 -13 6 0 11 -16 11 -35 0 -19 -4 -35 -9 -35 -11 0 -24 31
-16 38 3 3 5 -1 5 -8 0 -7 3 -10 7 -7 3 4 -2 16 -12 27 -14 16 -21 17 -38 8
-22 -12 -108 -5 -171 14 -54 16 -111 73 -124 123 -18 69 -24 197 -12 250 6 28
29 94 50 147 50 122 50 135 0 35 -49 -99 -84 -245 -78 -326 3 -48 2 -56 -9
-45 -9 8 -13 42 -14 95 -1 79 -2 82 -17 62 -17 -20 -100 -68 -108 -61 -1 2 18
19 44 38 31 24 56 53 74 90 15 30 28 59 28 63 0 5 -19 -6 -42 -24 -74 -57 -75
-57 -58 -33 8 12 34 46 56 75 39 51 89 167 128 299 14 48 22 59 61 82 41 25
58 26 36 3 -19 -22 -91 -166 -110 -223 -38 -113 -22 -98 58 50 69 128 137 238
148 238 2 0 -8 -22 -22 -50 -14 -27 -25 -60 -25 -73 0 -13 -9 -49 -19 -80 -11
-32 -18 -57 -16 -57 3 0 18 29 34 64 39 87 102 168 185 237 71 61 94 72 77 41z
m4021 -38 c46 -14 99 -36 118 -47 19 -12 38 -21 43 -19 4 1 7 -2 7 -8 0 -15
-12 -13 -71 14 -46 20 -115 39 -217 62 -29 6 -19 24 13 24 13 0 61 -12 107
-26z m-886 -63 c-16 -16 -34 -27 -42 -24 -22 8 16 52 45 53 l25 0 -28 -29z
m2367 -130 c42 -28 82 -61 87 -73 116 -282 125 -312 155 -527 12 -87 13 -127
1 -138 -3 -3 -5 3 -5 13 0 51 -24 218 -41 292 -22 92 -38 129 -83 185 -16 21
-40 59 -53 85 -30 61 -78 110 -129 132 -22 10 -47 25 -55 36 -13 16 -13 17 0
9 8 -4 5 3 -7 17 -13 13 -23 28 -23 33 0 4 10 0 23 -11 l22 -19 -20 23 c-18
22 -20 22 -32 6 -7 -10 -13 -16 -14 -13 -15 95 -7 102 49 46 26 -25 82 -69
125 -96z m-3765 45 c11 15 13 15 9 3 -3 -10 4 -25 16 -38 12 -11 33 -32 47
-46 13 -14 28 -25 32 -25 19 0 118 -79 101 -81 -4 0 1 -5 12 -10 16 -7 14 -8
-10 -3 -16 3 -32 10 -34 16 -2 7 -6 7 -10 0 -4 -6 -24 -5 -56 3 -27 6 -77 18
-110 25 -33 7 -66 20 -72 28 -10 12 -13 12 -13 3 0 -9 -8 -11 -27 -6 -34 9
-44 9 -64 1 -11 -5 -19 -1 -23 9 -5 13 -1 15 15 10 14 -5 19 -3 15 4 -4 7 -1
9 7 5 8 -3 17 -2 20 3 3 5 42 8 86 7 45 -1 81 -1 81 0 0 2 -16 23 -35 47 -36
46 -48 73 -18 44 16 -16 18 -16 31 1z m-398 -69 c0 -5 -7 -7 -15 -3 -8 3 -15
0 -15 -6 0 -6 -3 -9 -6 -5 -3 3 -4 10 0 15 7 12 36 11 36 -1z m-430 -21 c0 -3
-4 -8 -10 -11 -5 -3 -10 -1 -10 4 0 6 5 11 10 11 6 0 10 -2 10 -4z m2331 -122
c32 -29 7 -35 -65 -17 -62 15 -67 18 -50 31 24 17 89 10 115 -14z m-3384 -6
c-3 -8 -6 -5 -6 6 -1 11 2 17 5 13 3 -3 4 -12 1 -19z m2158 2 c3 -5 2 -10 -4
-10 -5 0 -13 5 -16 10 -3 6 -2 10 4 10 5 0 13 -4 16 -10z m1060 -29 c-3 -16
-2 -47 4 -68 l10 -38 -23 26 c-31 35 -58 49 -98 50 l-33 0 45 20 c25 10 52 23
60 28 30 19 42 13 35 -18z m-2811 10 c3 -5 -14 -35 -39 -67 -25 -31 -46 -69
-46 -83 -1 -26 -1 -25 -8 3 -6 28 -6 28 -23 9 -10 -11 -25 -37 -33 -59 l-15
-39 5 35 c8 54 45 120 92 167 43 43 57 51 67 34z m1244 -123 c16 -16 15 -48
-1 -48 -7 0 -18 -9 -25 -20 -7 -11 -18 -20 -25 -20 -9 0 -9 2 0 8 7 4 13 23
14 42 4 53 13 62 37 38z m232 2 c0 -5 -2 -10 -4 -10 -3 0 -8 5 -11 10 -3 6 -1
10 4 10 6 0 11 -4 11 -10z m3880 -165 c0 -44 -7 -125 -15 -179 -16 -105 -42
-161 -103 -219 -28 -27 -30 -27 -35 -8 -3 12 1 22 9 25 8 3 14 1 14 -5 0 -6 5
-7 10 -4 6 4 8 11 5 16 -4 5 -3 14 1 20 4 8 9 7 15 -2 7 -11 9 -11 9 2 0 9 7
22 15 29 9 7 14 19 11 27 -3 8 -1 11 4 8 6 -3 10 5 10 19 0 14 5 26 11 26 6 0
8 7 5 15 -3 9 1 44 9 78 19 80 19 191 0 253 -19 63 -18 68 6 19 13 -29 19 -63
19 -120z m-5090 135 c0 -5 -2 -10 -4 -10 -3 0 -8 5 -11 10 -3 6 -1 10 4 10 6
0 11 -4 11 -10z m1026 -5 c-3 -8 -1 -15 4 -15 6 0 10 4 10 9 0 5 10 7 22 3 12
-3 17 -7 10 -10 -6 -2 -12 -10 -12 -18 0 -13 -5 -12 -29 2 -27 16 -33 44 -9
44 6 0 8 -7 4 -15z m1131 -17 c-3 -7 -5 -2 -5 12 0 14 2 19 5 13 2 -7 2 -19 0
-25z m-2213 -89 c-23 -25 -31 -24 -48 9 -12 24 -12 30 1 47 15 19 15 19 10
-10 -5 -28 6 -67 15 -55 12 15 28 65 30 88 1 15 3 7 5 -17 3 -31 -1 -48 -13
-62z m941 32 c-4 -10 -2 -11 7 -4 7 6 47 13 88 16 l75 6 -25 -19 c-22 -17 -36
-22 -56 -19 -4 0 -10 -5 -15 -13 -6 -9 -32 -13 -79 -14 -62 -1 -70 1 -70 17 0
11 6 19 14 19 8 0 17 11 20 25 6 22 9 24 26 12 11 -6 18 -18 15 -26z m4145 -6
c0 -5 -5 -3 -10 5 -5 8 -10 20 -10 25 0 6 5 3 10 -5 5 -8 10 -19 10 -25z
m-5012 -79 c-1 -14 -7 -22 -15 -19 -9 4 -9 9 0 24 15 25 17 24 15 -5z m-112
-34 c-17 -16 -18 -16 -5 5 7 12 15 20 18 17 3 -2 -3 -12 -13 -22z m224 18 c0
-5 -4 -10 -10 -10 -5 0 -10 5 -10 10 0 6 5 10 10 10 6 0 10 -4 10 -10z m975
-9 c16 -7 8 -12 -45 -30 -41 -14 -53 -20 -32 -18 18 2 35 0 38 -5 5 -8 -1 -9
-63 -10 -21 0 -43 -5 -50 -10 -7 -5 -16 -7 -21 -4 -5 3 -23 -9 -40 -26 -25
-23 -32 -27 -32 -13 0 28 30 71 64 91 49 29 139 41 181 25z m-521 -10 c3 -5
-1 -14 -9 -21 -13 -10 -15 -9 -15 9 0 21 14 28 24 12z m-71 -55 c6 -16 -3 -31
-25 -39 -10 -3 -18 -15 -18 -26 0 -17 -6 -20 -45 -19 -25 0 -52 -5 -60 -12
-12 -10 -15 -10 -15 2 0 20 82 48 88 30 9 -29 23 -8 21 31 -2 28 1 41 9 40 7
-2 12 1 12 7 0 13 27 2 33 -14z m27 8 c0 -8 -4 -12 -10 -9 -5 3 -10 10 -10 16
0 5 5 9 10 9 6 0 10 -7 10 -16z m3566 -159 c-4 -82 -17 -155 -50 -286 -24 -97
-51 -189 -60 -206 -8 -17 -61 -73 -117 -124 -86 -80 -179 -191 -179 -215 0
-24 -70 -87 -128 -116 -37 -18 -84 -43 -104 -56 -31 -20 -41 -22 -53 -12 -8 7
-15 18 -15 25 0 7 -10 35 -21 64 -26 62 -43 65 -89 15 -31 -34 -34 -36 -46
-19 -17 22 -9 35 20 35 22 0 66 33 66 49 0 10 45 31 87 41 17 4 53 4 80 -1 30
-6 59 -5 79 1 29 10 259 215 302 271 24 31 66 113 81 162 7 20 17 37 22 37 13
0 11 -14 -11 -81 -25 -73 -21 -97 7 -51 27 43 83 320 99 487 14 154 13 146 26
115 6 -15 8 -68 4 -135z m-3141 115 c-3 -5 -12 -10 -18 -10 -7 0 -6 4 3 10 19
12 23 12 15 0z m225 -29 c0 -5 -7 -12 -16 -15 -14 -5 -15 -4 -4 9 14 17 20 19
20 6z m4132 -148 c27 -54 31 -74 30 -137 -1 -88 -21 -135 -81 -189 -62 -56
-65 -48 -9 25 40 51 58 110 58 190 0 59 -5 79 -36 141 -29 58 -32 68 -15 53
12 -11 36 -48 53 -83z m-4359 -9 c-8 -23 -23 3 -23 41 l0 30 15 -28 c8 -15 11
-35 8 -43z m1234 44 c-3 -8 -6 -5 -6 6 -1 11 2 17 5 13 3 -3 4 -12 1 -19z
m-3102 -77 c4 -55 60 -182 102 -230 35 -42 140 -101 178 -101 10 0 29 12 42
26 13 14 26 24 29 22 7 -8 -7 -38 -16 -33 -4 3 -10 -2 -14 -10 -4 -10 -20 -15
-51 -15 -47 0 -56 -11 -36 -48 6 -12 4 -22 -7 -32 -14 -13 -15 -12 -9 3 3 9 2
17 -3 17 -5 0 -16 16 -24 35 -9 20 -37 58 -63 86 -65 68 -84 102 -117 206 -15
48 -34 106 -42 128 l-14 40 21 -28 c12 -15 23 -45 24 -66z m2005 49 c0 -5 -2
-10 -4 -10 -3 0 -8 5 -11 10 -3 6 -1 10 4 10 6 0 11 -4 11 -10z m-1663 -57
c-3 -10 -5 -2 -5 17 0 19 2 27 5 18 2 -10 2 -26 0 -35z m1729 -8 c-11 -8 -24
-15 -30 -15 -5 0 -1 7 10 15 10 8 24 14 29 14 6 0 1 -6 -9 -14z m1259 -2 c-4
-10 -7 -28 -6 -41 1 -20 -2 -22 -42 -17 -31 4 -37 3 -22 -4 11 -5 16 -10 11
-10 -5 -1 3 -10 18 -22 14 -11 31 -17 38 -13 7 4 5 -1 -4 -11 -16 -18 -18 -17
-37 6 -17 20 -20 21 -21 7 0 -23 -27 -13 -35 13 -9 28 34 81 62 76 16 -3 24 2
28 14 4 11 9 19 12 19 3 0 2 -8 -2 -17z m-3264 -10 c13 -16 12 -17 -3 -4 -10
7 -18 15 -18 17 0 8 8 3 21 -13z m207 -48 c-3 -3 -9 2 -12 12 -6 14 -5 15 5 6
7 -7 10 -15 7 -18z m2789 -17 c1 -30 1 -31 -6 -8 -7 21 -5 40 2 40 2 0 3 -15
4 -32z m133 28 c0 -3 -4 -8 -10 -11 -5 -3 -10 -1 -10 4 0 6 5 11 10 11 6 0 10
-2 10 -4z m1426 -22 c-4 -16 -3 -23 3 -20 11 7 20 -49 23 -146 0 -16 5 -28 9
-28 16 0 9 -19 -25 -72 -18 -29 -37 -64 -41 -76 -13 -43 -133 -152 -167 -152
-6 0 -25 -12 -40 -27 -16 -15 -28 -21 -28 -14 0 11 -3 11 -15 1 -8 -7 -15 -16
-15 -21 0 -16 39 -10 48 8 10 17 42 12 42 -6 0 -11 -21 -19 -73 -25 -24 -3
-35 -2 -31 5 3 6 -3 13 -15 16 -25 6 -18 23 9 23 10 0 22 4 25 10 3 6 -1 7
-12 4 -10 -3 -7 2 7 10 29 18 44 20 35 6 -3 -5 -1 -10 4 -10 6 0 11 6 11 14 0
8 11 17 25 20 32 8 92 61 111 98 8 16 18 27 22 24 4 -2 8 7 8 21 1 13 10 33
19 43 9 10 14 23 11 29 -4 5 2 14 11 20 10 6 14 11 9 11 -5 0 -2 7 5 17 10 11
14 47 15 112 2 120 3 131 10 131 3 0 3 -12 0 -26z m-4371 6 c3 -5 15 -10 26
-10 10 0 19 -7 19 -15 0 -8 -3 -15 -7 -15 -14 1 -68 50 -56 50 6 0 15 -4 18
-10z m94 -60 c-4 -8 -14 -24 -23 -35 -13 -18 -14 -16 -1 20 8 22 15 51 16 65
1 23 2 23 8 -5 4 -16 4 -37 0 -45z m5499 48 c-2 -13 -11 -24 -20 -26 -21 -4
-23 13 -5 33 18 21 29 18 25 -7z m-5687 -25 c13 -16 12 -17 -3 -4 -10 7 -18
15 -18 17 0 8 8 3 21 -13z m3069 -11 c0 -4 -9 -13 -20 -20 -22 -13 -23 -12
-14 12 6 16 34 23 34 8z m-2940 -12 c-8 -5 -33 -9 -55 -8 l-40 1 40 7 c65 12
73 12 55 0z m574 -13 c3 3 6 -3 6 -14 0 -30 -10 -33 -31 -12 -25 25 -25 43 0
30 10 -6 21 -7 25 -4z m2231 3 c3 -5 2 -10 -4 -10 -5 0 -13 5 -16 10 -3 6 -2
10 4 10 5 0 13 -4 16 -10z m-2863 -77 c7 -9 4 -11 -11 -10 -23 1 -25 8 -14 47
l8 25 3 -25 c2 -14 8 -30 14 -37z m2930 22 c-3 -24 -9 -35 -21 -35 -29 0 -45
16 -36 36 8 17 9 17 12 -3 6 -32 19 -29 32 7 13 40 18 38 13 -5z m-2774 0 c3
-11 0 -15 -8 -10 -7 5 -10 -2 -8 -21 2 -16 -2 -29 -11 -32 -10 -3 -12 0 -8 12
4 10 7 31 7 48 0 32 22 35 28 3z m412 -3 c-11 -2 -20 -8 -20 -13 0 -17 -25 -9
-39 12 -11 19 -11 21 3 16 8 -3 18 -2 21 2 3 5 16 4 30 -2 23 -11 23 -12 5
-15z m2280 4 c0 -8 -7 -20 -17 -27 -15 -13 -15 -12 -4 9 6 12 9 28 5 34 -4 7
-3 8 4 4 7 -4 12 -13 12 -20z m114 -1 c-6 -16 -24 -21 -24 -7 0 11 11 22 21
22 5 0 6 -7 3 -15z m-2637 -57 c-3 -7 -5 -2 -5 12 0 14 2 19 5 13 2 -7 2 -19
0 -25z m123 -14 c12 -32 12 -37 0 -29 -6 3 -7 -1 -4 -10 4 -8 15 -20 25 -26
11 -5 19 -17 19 -25 0 -9 9 -27 20 -41 11 -14 17 -29 14 -34 -6 -10 21 -41 29
-33 3 3 4 -3 4 -13 -1 -10 -8 -22 -15 -26 -18 -12 -54 2 -48 18 2 7 -5 20 -17
28 -36 23 -82 74 -105 116 l-23 40 28 30 c35 37 60 39 73 5z m5205 -40 c16
-12 54 -124 48 -141 -10 -25 -33 -22 -38 5 -3 15 -16 59 -28 97 -13 39 -21 77
-19 85 4 10 8 6 14 -10 5 -14 15 -30 23 -36z m-2520 16 c-3 -5 -25 -19 -48
-30 -23 -10 -34 -19 -25 -20 9 0 20 5 23 10 3 6 14 10 23 10 26 -1 -56 -41
-92 -46 -17 -2 -26 0 -19 4 7 5 14 20 15 34 2 18 7 24 17 20 10 -4 12 -1 6 8
-5 8 -4 11 3 7 5 -4 21 -3 34 2 31 13 71 13 63 1z m-240 -30 c3 -5 -1 -10 -10
-10 -9 0 -13 5 -10 10 3 6 8 10 10 10 2 0 7 -4 10 -10z m-39 -17 c-4 -9 -2
-19 4 -23 6 -4 -6 -6 -26 -6 -21 1 -39 7 -42 14 -2 8 5 11 20 10 14 -2 22 2
21 10 -2 6 4 12 13 12 11 0 14 -5 10 -17z m129 7 c3 -5 -1 -10 -9 -10 -8 0
-18 5 -21 10 -3 6 1 10 9 10 8 0 18 -4 21 -10z m-52 -35 c-7 -21 -13 -19 -13
6 0 11 4 18 10 14 5 -3 7 -12 3 -20z m2857 -65 c1 -33 2 -34 15 -15 37 52 45
57 24 16 -11 -24 -27 -65 -35 -91 -7 -25 -30 -65 -50 -88 -42 -49 -127 -102
-165 -102 l-26 0 35 -92 c32 -83 36 -106 40 -213 4 -129 -9 -199 -30 -161 -7
12 -9 57 -5 120 2 56 1 126 -4 156 -6 30 -11 63 -11 72 -1 9 -4 15 -7 13 -2
-3 -11 4 -19 16 -8 11 -12 23 -8 26 3 3 -1 18 -9 33 l-14 28 67 28 c93 40 156
103 171 173 6 29 11 73 11 99 0 56 19 39 20 -18z m-2875 30 c3 -5 1 -10 -4
-10 -6 0 -11 5 -11 10 0 6 2 10 4 10 3 0 8 -4 11 -10z m2703 -36 c-4 -3 -12 5
-18 18 -12 22 -12 22 6 6 10 -10 15 -20 12 -24z m-5583 -2 c-3 -3 -11 0 -18 7
-9 10 -8 11 6 5 10 -3 15 -9 12 -12z m442 -38 c-3 -3 -12 -4 -19 -1 -8 3 -5 6
6 6 11 1 17 -2 13 -5z m2223 -34 c0 -5 -4 -10 -10 -10 -5 0 -10 5 -10 10 0 6
5 10 10 10 6 0 10 -4 10 -10z m2770 -50 c5 0 13 6 17 14 12 19 48 36 79 36
l27 0 -27 -21 c-14 -11 -31 -17 -37 -13 -8 4 -9 3 -5 -4 4 -7 2 -13 -3 -13
-14 -2 -29 -6 -36 -9 -3 -1 -11 -3 -17 -4 -7 -1 -12 -9 -10 -19 4 -24 -16 -57
-34 -57 -13 0 -15 7 -9 33 3 17 7 46 8 62 2 17 7 37 12 45 7 11 11 7 17 -18 5
-18 13 -32 18 -32z m-98 17 c1 -15 6 -27 10 -27 9 0 10 -32 2 -54 -7 -19 -45
-21 -62 -4 -17 17 -15 23 13 36 20 9 25 19 25 48 0 42 9 42 12 1z m-2647 -5
c-8 -8 -25 10 -19 20 4 6 9 5 15 -3 4 -7 6 -15 4 -17z m2530 -40 c-15 -16 -16
-15 -4 12 7 15 15 23 17 16 3 -7 -3 -19 -13 -28z m-2505 6 c0 -19 -2 -20 -10
-8 -13 19 -13 30 0 30 6 0 10 -10 10 -22z m1510 -33 c-9 -11 -17 -11 -36 -3
-32 15 -30 22 9 33 35 11 49 -4 27 -30z m1209 -120 c-4 -11 -15 -57 -25 -102
-28 -131 -94 -224 -159 -223 -17 1 -15 3 8 16 16 8 25 20 21 26 -4 7 -3 8 4 4
6 -3 16 3 23 16 6 12 20 31 30 42 11 11 19 26 19 34 0 8 11 36 25 63 13 27 20
49 14 49 -13 0 -8 42 6 52 6 5 6 8 -2 8 -6 0 -9 9 -6 23 11 50 12 51 32 31 12
-13 16 -25 10 -39z m68 -115 c31 -84 36 -145 19 -230 -31 -146 -98 -235 -218
-288 -32 -13 -58 -28 -58 -33 0 -5 8 -30 19 -56 32 -80 45 -193 33 -276 -15
-109 -13 -136 10 -132 15 3 18 0 13 -13 -4 -9 -8 -21 -9 -27 -1 -5 -5 -16 -10
-24 -12 -19 -26 4 -26 44 0 17 -3 40 -7 53 -5 23 -8 21 -59 -29 -53 -53 -86
-66 -104 -44 -7 9 5 22 43 47 36 24 61 51 82 89 27 48 30 63 30 139 -1 109
-13 190 -34 213 -15 18 -14 20 7 37 13 11 30 16 38 13 9 -3 12 0 9 9 -4 9 5
20 21 29 44 23 133 129 167 198 44 89 44 173 -1 284 -32 83 -34 132 -2 80 9
-15 26 -53 37 -83z m-1113 -229 c-16 -15 -16 -15 -9 4 4 11 10 29 13 40 6 18
7 18 10 -4 2 -13 -4 -31 -14 -40z m920 2 c-15 -62 -48 -122 -89 -163 -42 -42
-85 -61 -85 -40 0 15 -25 12 -59 -7 -26 -15 -32 -16 -43 -4 -11 12 -10 13 4 8
10 -4 17 -2 15 4 -1 6 18 21 42 34 25 13 48 30 53 37 6 11 8 11 8 0 0 -10 3
-10 14 0 7 7 11 18 9 25 -3 8 3 10 18 6 18 -5 21 -3 16 10 -8 21 2 49 14 41 5
-3 9 -2 8 3 -4 25 5 40 34 55 44 23 48 22 41 -9z m-4256 -181 c-7 -10 -14 -19
-15 -21 -1 -2 -10 2 -18 9 -15 12 -14 15 7 26 29 15 43 8 26 -14z m-78 -26 c0
-2 -8 -10 -17 -17 -16 -13 -17 -12 -4 4 13 16 21 21 21 13z m3697 -33 c-3 -10
-5 -4 -5 12 0 17 2 24 5 18 2 -7 2 -21 0 -30z m490 -55 c-3 -8 -6 -5 -6 6 -1
11 2 17 5 13 3 -3 4 -12 1 -19z m30 0 c-3 -8 -6 -5 -6 6 -1 11 2 17 5 13 3 -3
4 -12 1 -19z m-2441 -62 c17 -13 15 -14 -24 -13 -41 2 -49 7 -35 20 11 11 38
8 59 -7z m2419 -18 c-3 -18 -7 -38 -8 -43 -3 -15 -29 -48 -51 -65 -18 -14 -19
-14 -5 9 42 71 59 106 59 118 0 7 3 13 6 13 4 0 3 -15 -1 -32z m-145 -118 c0
-5 -7 -10 -15 -10 -7 0 -19 -8 -24 -17 -6 -10 -11 -13 -11 -6 0 6 -9 9 -20 6
-27 -7 -25 10 3 23 29 15 67 17 67 4z m-245 -179 c-28 -50 -65 -93 -65 -75 0
11 53 97 73 119 22 24 19 7 -8 -44z m590 -90 c-8 -17 -19 -32 -24 -35 -11 -7
-23 22 -15 36 5 7 35 23 52 27 1 1 -4 -12 -13 -28z m40 -25 c-10 -20 -22 -39
-27 -42 -6 -4 -5 3 1 15 15 28 4 27 -20 -1 l-20 -23 12 25 c6 14 21 38 32 53
28 40 44 20 22 -27z m239 -37 c-38 -40 -143 -106 -179 -114 l-30 -6 28 16 c15
9 27 20 27 25 0 6 9 10 21 10 12 0 23 8 26 20 5 18 17 24 50 23 7 0 11 2 10 6
-3 11 68 70 72 60 2 -6 -9 -24 -25 -40z m-552 -219 l4 -195 59 -111 c69 -133
75 -178 32 -242 -15 -21 -27 -52 -27 -70 0 -39 -12 -68 -64 -154 -37 -63 -43
-68 -75 -68 -29 0 -32 2 -21 15 20 24 -49 121 -103 144 l-41 18 53 6 c92 11
175 75 201 153 13 39 8 189 -8 249 -8 28 -9 26 -20 -31 -8 -38 -24 -78 -42
-103 -40 -54 -45 -52 -14 7 21 38 24 55 19 87 -4 22 -7 67 -7 100 1 50 -1 57
-11 40 -6 -11 -12 -26 -13 -33 -4 -20 -14 -28 -14 -10 0 9 12 42 28 74 25 56
27 67 26 194 0 83 4 138 10 142 20 13 24 -17 28 -212z m138 199 c0 -5 -7 -9
-15 -9 -15 0 -20 12 -9 23 8 8 24 -1 24 -14z m165 -99 c-3 -5 -1 -10 4 -10 6
0 11 -6 11 -14 0 -8 17 -20 38 -26 20 -7 42 -17 47 -22 13 -12 -60 -79 -130
-119 -62 -36 -84 -38 -30 -3 38 25 36 26 -9 8 -14 -5 -17 -4 -12 4 4 7 14 12
22 12 8 0 14 5 14 10 0 6 5 10 11 10 16 0 111 78 102 83 -4 2 -29 8 -55 11
-57 9 -69 23 -38 48 25 20 34 23 25 8z m-210 -60 c5 -8 -43 -40 -60 -40 -5 0
46 49 52 50 1 0 4 -4 8 -10z m52 -36 c-3 -3 -12 -4 -19 -1 -8 3 -5 6 6 6 11 1
17 -2 13 -5z m73 -13 c0 -5 -6 -14 -14 -20 -11 -9 -16 -9 -21 0 -4 6 -1 15 6
20 18 11 29 11 29 0z m-55 -11 c3 -5 2 -10 -4 -10 -5 0 -13 5 -16 10 -3 6 -2
10 4 10 5 0 13 -4 16 -10z m-3015 -294 c0 -3 -4 -8 -10 -11 -5 -3 -10 -1 -10
4 0 6 5 11 10 11 6 0 10 -2 10 -4z m175 -116 c-3 -5 -14 -10 -23 -9 -14 0 -13
2 3 9 27 11 27 11 20 0z m-1019 -85 c-8 -8 -20 -15 -27 -15 -7 0 -4 6 7 15 25
19 40 19 20 0z m279 5 c3 -5 -1 -10 -10 -10 -9 0 -13 5 -10 10 3 6 8 10 10 10
2 0 7 -4 10 -10z m-135 -40 c0 -5 -7 -10 -15 -10 -8 0 -15 5 -15 10 0 6 7 10
15 10 8 0 15 -4 15 -10z m3352 -183 c45 -70 71 -139 56 -148 -6 -4 -16 -5 -22
-2 -5 3 -6 2 -3 -4 4 -6 -4 -19 -16 -30 -38 -34 -53 -38 -29 -9 27 35 28 77 2
101 -16 15 -22 15 -35 5 -13 -10 -15 -9 -15 8 0 12 -9 26 -20 32 -27 14 -25
27 5 34 15 4 27 16 31 31 3 14 9 25 13 25 3 0 18 -19 33 -43z m-2585 -615
c-10 -9 -17 -11 -17 -5 0 7 4 14 9 17 5 3 7 16 5 29 l-5 22 12 -23 c10 -19 10
-26 -4 -40z m293 -253 c0 -5 -9 -9 -20 -9 -11 0 -20 6 -20 14 0 9 7 12 20 9
11 -3 20 -9 20 -14z m3685 -199 c126 -1 169 -5 145 -11 -19 -4 -197 -8 -395
-8 -198 1 -382 -2 -410 -5 -46 -5 -47 -5 -15 5 49 14 223 25 370 23 69 -1 206
-3 305 -4z m-830 -49 c15 -6 7 -10 -35 -16 -52 -7 -113 -21 -190 -44 -44 -14
-50 -14 -50 0 0 5 5 7 11 3 6 -3 14 -2 18 3 5 9 73 28 171 49 13 3 27 7 29 10
6 6 23 4 46 -5z m-2358 -63 c-3 -8 -6 -5 -6 6 -1 11 2 17 5 13 3 -3 4 -12 1
-19z m3543 -33 c0 -8 -4 -15 -10 -15 -5 0 -10 7 -10 15 0 8 5 15 10 15 6 0 10
-7 10 -15z m99 -152 c2 -2 -3 -3 -12 -3 -9 0 -22 10 -28 23 l-12 22 24 -20
c13 -11 26 -21 28 -22z m-609 -48 c-7 -8 -17 -15 -22 -15 -6 0 -5 7 2 15 7 8
17 15 22 15 6 0 5 -7 -2 -15z m-959 -57 c11 -21 11 -22 -4 -9 -10 7 -17 17
-17 22 0 15 9 10 21 -13z m40 -45 c13 -16 12 -17 -3 -4 -10 7 -18 15 -18 17 0
8 8 3 21 -13z m799 14 c0 -2 -10 -12 -22 -23 l-23 -19 19 23 c18 21 26 27 26
19z m30 -1 c0 -2 -8 -10 -17 -17 -16 -13 -17 -12 -4 4 13 16 21 21 21 13z
m-116 -88 c-10 -13 -29 -35 -42 -49 -20 -23 -28 -41 -31 -71 -1 -5 -6 -8 -12
-8 -6 0 -7 5 -2 13 4 6 8 18 9 25 2 13 82 112 91 112 4 0 -2 -10 -13 -22z
m-3037 -20 c-3 -8 -6 -5 -6 6 -1 11 2 17 5 13 3 -3 4 -12 1 -19z m2495 -112
c7 4 8 2 4 -5 -9 -13 -26 -5 -25 12 0 9 2 8 6 -1 2 -6 10 -9 15 -6z m18 -36
c0 -5 -5 -10 -11 -10 -5 0 -7 5 -4 10 3 6 8 10 11 10 2 0 4 -4 4 -10z m415 0
c3 -5 1 -10 -4 -10 -6 0 -11 5 -11 10 0 6 2 10 4 10 3 0 8 -4 11 -10z m-400
-30 c15 -6 23 -15 20 -21 -4 -6 1 -16 11 -23 18 -13 11 -41 -8 -30 -6 4 -5 10
3 15 10 6 8 9 -8 9 -12 0 -23 6 -26 13 -3 10 -9 10 -26 0 -11 -7 -27 -13 -36
-13 -8 0 -12 -6 -9 -13 3 -8 0 -26 -6 -41 -9 -23 -13 -26 -25 -16 -12 10 -15
9 -15 -4 0 -12 10 -16 43 -16 33 -1 38 -3 25 -11 -24 -13 -23 -36 2 -49 22
-12 25 -8 33 43 3 18 0 27 -9 27 -19 0 -23 12 -15 50 l7 35 18 -33 c13 -25 22
-32 37 -27 13 4 19 2 19 -9 0 -9 11 -18 24 -22 13 -3 27 -13 30 -22 3 -10 11
-25 18 -35 14 -19 20 -12 -104 -121 -21 -18 -40 -31 -43 -28 -3 3 -5 -1 -5 -9
0 -11 -2 -11 -10 1 -15 23 -12 29 11 25 18 -4 19 -2 8 11 -7 8 -18 13 -26 10
-8 -4 -11 -1 -8 5 18 28 -67 79 -132 79 -41 0 -55 11 -32 26 6 3 8 17 5 30 -4
14 -2 24 4 24 5 0 10 9 10 20 0 11 3 19 8 19 28 -5 39 6 51 47 8 25 19 48 26
50 6 3 33 0 60 -6 49 -11 71 -6 45 10 -20 13 -8 12 25 0z m145 -181 c0 -15
-18 -19 -23 -6 -3 8 1 14 9 14 8 0 14 -4 14 -8z m1374 5 c26 -10 20 -41 -8
-41 -28 0 -44 26 -24 39 16 9 13 9 32 2z m-2537 -66 c-3 -8 -6 -5 -6 6 -1 11
2 17 5 13 3 -3 4 -12 1 -19z m43 13 c0 -5 -7 -11 -15 -15 -9 -3 -15 0 -15 9 0
8 7 15 15 15 8 0 15 -4 15 -9z m-50 -136 c0 -8 -4 -15 -10 -15 -5 0 -10 7 -10
15 0 8 5 15 10 15 6 0 10 -7 10 -15z m928 -35 c-7 -11 -19 -22 -27 -25 -11 -4
-12 -3 -1 10 7 8 9 15 5 15 -4 0 -2 7 5 15 17 21 32 8 18 -15z m-1348 -287 c0
-14 -19 -38 -25 -32 -8 8 5 39 16 39 5 0 9 -3 9 -7z m-34 -179 c-4 -14 -1 -24
9 -28 22 -8 18 -33 -6 -39 -12 -3 -18 -10 -14 -16 11 -19 -1 -12 -26 15 -15
16 -19 24 -9 22 9 -2 15 4 15 15 0 10 7 22 15 27 10 7 11 10 3 10 -7 0 -13 4
-13 8 0 5 7 9 16 9 11 0 14 -7 10 -23z m84 -4 c0 -5 -2 -10 -4 -10 -3 0 -8 5
-11 10 -3 6 -1 10 4 10 6 0 11 -4 11 -10z m-122 -95 c-3 -3 -9 2 -12 12 -6 14
-5 15 5 6 7 -7 10 -15 7 -18z"/>
<path d="M2520 9570 c-9 -6 -10 -10 -3 -10 6 0 15 5 18 10 8 12 4 12 -15 0z"/>
<path d="M2430 9530 c-13 -8 -12 -10 3 -10 9 0 17 5 17 10 0 12 -1 12 -20 0z"/>
<path d="M2260 9415 c-7 -9 -8 -15 -2 -15 5 0 12 7 16 15 3 8 4 15 2 15 -2 0
-9 -7 -16 -15z"/>
<path d="M2231 9364 c0 -11 3 -14 6 -6 3 7 2 16 -1 19 -3 4 -6 -2 -5 -13z"/>
<path d="M2207 9313 c-11 -11 -8 -20 7 -20 8 0 12 6 9 14 -6 15 -7 15 -16 6z"/>
<path d="M4225 9298 c-68 -13 -74 -23 -14 -23 27 0 53 -5 57 -10 4 -6 20 -16
36 -23 45 -20 24 -24 -40 -7 -32 8 -68 15 -79 15 -11 0 -31 7 -43 16 -13 9
-22 11 -22 4 0 -26 68 -52 193 -75 l38 -7 -7 43 c-7 49 -29 80 -53 78 -9 -1
-38 -6 -66 -11z"/>
<path d="M2210 9258 c0 -16 5 -28 10 -28 13 0 13 20 0 40 -8 12 -10 9 -10 -12z"/>
<path d="M2355 9250 c-3 -5 -1 -10 4 -10 6 0 11 5 11 10 0 6 -2 10 -4 10 -3 0
-8 -4 -11 -10z"/>
<path d="M2390 9241 c0 -6 4 -13 10 -16 6 -3 7 1 4 9 -7 18 -14 21 -14 7z"/>
<path d="M2261 9224 c0 -11 3 -14 6 -6 3 7 2 16 -1 19 -3 4 -6 -2 -5 -13z"/>
<path d="M5021 9216 c2 -2 36 -22 74 -45 46 -27 60 -32 40 -16 -29 26 -97 65
-111 65 -4 0 -5 -2 -3 -4z"/>
<path d="M2385 9200 c4 -6 12 -7 18 -3 7 4 4 -5 -5 -20 -22 -33 -22 -37 0 -37
10 0 23 -5 29 -11 9 -9 9 -2 4 24 -11 44 -19 57 -37 57 -8 0 -12 -5 -9 -10z"/>
<path d="M2280 9136 c0 -14 5 -28 10 -31 6 -3 10 5 10 19 0 14 -4 28 -10 31
-6 3 -10 -5 -10 -19z"/>
<path d="M2236 9128 c-9 -34 -7 -58 4 -58 15 0 29 35 23 58 -7 28 -19 28 -27
0z"/>
<path d="M5825 9110 c33 -4 78 -8 100 -8 34 0 36 1 15 8 -14 4 -59 8 -100 8
l-75 -1 60 -7z"/>
<path d="M2440 9096 c0 -2 7 -9 15 -16 13 -11 14 -10 9 4 -5 14 -24 23 -24 12z"/>
<path d="M5301 8924 c-8 -25 -25 -60 -40 -77 -19 -22 -21 -29 -9 -24 10 3 20
2 23 -3 3 -5 39 -9 81 -9 l76 0 -42 45 c-23 25 -48 61 -56 80 -8 19 -15 34
-17 34 -1 0 -9 -21 -16 -46z"/>
<path d="M3573 8889 c-70 -27 -136 -94 -162 -164 -24 -65 -27 -95 -7 -95 7 0
44 25 82 56 89 74 193 124 254 124 58 0 142 -24 199 -57 26 -15 46 -21 50 -15
8 13 41 18 68 8 12 -4 38 -25 57 -47 34 -40 34 -40 63 -24 15 9 20 14 10 11
-14 -4 -41 15 -100 69 -47 44 -107 88 -142 105 -106 52 -278 65 -372 29z"/>
<path d="M4280 8889 c0 -23 15 -38 28 -30 9 6 7 12 -8 26 -15 14 -20 15 -20 4z"/>
<path d="M3150 8835 c-19 -13 -71 -60 -114 -104 -44 -44 -90 -89 -104 -98 -14
-10 -36 -29 -51 -41 l-26 -24 40 23 c88 49 265 193 286 231 17 32 6 37 -31 13z"/>
<path d="M4460 8855 c0 -5 5 -17 10 -25 5 -8 10 -10 10 -5 0 6 -5 17 -10 25
-5 8 -10 11 -10 5z"/>
<path d="M4307 8843 c-8 -14 35 -93 50 -93 16 0 11 23 -14 73 -13 27 -27 34
-36 20z"/>
<path d="M5791 8830 c-9 -5 6 -10 40 -15 75 -10 166 -42 216 -75 39 -27 64
-26 47 1 -12 20 -146 78 -193 84 -25 3 -57 8 -71 10 -14 2 -32 0 -39 -5z"/>
<path d="M6457 8669 c62 -62 115 -111 118 -108 6 7 -169 181 -206 206 -13 9
26 -35 88 -98z"/>
<path d="M1797 8754 c-9 -9 23 -33 45 -34 9 0 18 -5 20 -12 5 -15 28 -1 28 16
0 8 -12 16 -27 19 -16 3 -35 8 -44 12 -8 3 -18 3 -22 -1z"/>
<path d="M4015 8719 c11 -7 29 -19 40 -28 19 -16 19 -15 4 9 -9 14 -27 26 -40
28 -23 2 -23 2 -4 -9z"/>
<path d="M3075 8682 c-5 -4 -19 -17 -29 -29 l-19 -23 30 0 c22 0 33 6 41 25 7
14 12 28 12 30 0 8 -24 5 -35 -3z"/>
<path d="M4815 8657 c11 -7 53 -45 94 -84 40 -40 77 -73 82 -73 15 0 5 25 -13
32 -10 4 -18 13 -18 20 0 9 3 9 10 -2 7 -10 10 -11 10 -2 0 7 -6 15 -14 18
-12 5 -13 11 -4 30 15 32 7 38 -74 58 -78 19 -101 20 -73 3z"/>
<path d="M2130 8640 c-14 -11 -20 -20 -15 -20 6 0 21 9 35 20 14 11 21 20 15
20 -5 0 -21 -9 -35 -20z"/>
<path d="M5397 8586 c-8 -21 14 -35 41 -25 12 5 22 12 22 18 0 5 -10 11 -22
15 -32 8 -35 8 -41 -8z"/>
<path d="M4907 8509 c7 -7 15 -10 18 -7 3 3 -2 9 -12 12 -14 6 -15 5 -6 -5z"/>
<path d="M5475 8503 c-27 -9 -44 -18 -37 -20 19 -7 142 18 142 28 0 13 -49 10
-105 -8z"/>
<path d="M2066 8455 c-27 -25 -45 -45 -39 -45 5 0 20 11 33 25 13 14 28 25 34
25 6 0 17 9 24 20 20 32 1 23 -52 -25z"/>
<path d="M5565 8470 c-4 -6 3 -10 14 -10 25 0 27 6 6 13 -8 4 -17 2 -20 -3z"/>
<path d="M4215 8420 c3 -5 13 -10 21 -10 8 0 12 5 9 10 -3 6 -13 10 -21 10 -8
0 -12 -4 -9 -10z"/>
<path d="M6660 8406 c0 -2 7 -9 15 -16 9 -7 15 -8 15 -2 0 5 -7 12 -15 16 -8
3 -15 4 -15 2z"/>
<path d="M6428 8356 c-2 -30 1 -46 8 -46 8 0 10 14 7 43 -8 56 -10 57 -15 3z"/>
<path d="M4112 8345 c-16 -13 -32 -22 -36 -20 -3 3 -2 0 4 -7 7 -9 17 -5 37
14 16 14 35 28 43 31 12 4 12 6 -2 6 -9 1 -30 -10 -46 -24z"/>
<path d="M7087 8359 c7 -7 15 -10 18 -7 3 3 -2 9 -12 12 -14 6 -15 5 -6 -5z"/>
<path d="M6705 8350 c-3 -5 -1 -10 4 -10 6 0 11 5 11 10 0 6 -2 10 -4 10 -3 0
-8 -4 -11 -10z"/>
<path d="M7060 8345 c0 -8 2 -15 4 -15 2 0 11 -3 20 -6 23 -9 20 9 -4 24 -17
10 -20 10 -20 -3z"/>
<path d="M5460 8330 c-11 -7 0 -10 38 -10 33 0 51 4 47 10 -8 13 -65 13 -85 0z"/>
<path d="M6422 8278 c-6 -13 -13 -42 -16 -65 -6 -42 -6 -43 22 -43 26 0 29 3
24 28 -2 15 -9 32 -14 38 -5 7 -4 22 2 38 12 32 -2 35 -18 4z"/>
<path d="M4418 8223 c6 -2 18 -2 25 0 6 3 1 5 -13 5 -14 0 -19 -2 -12 -5z"/>
<path d="M5011 8204 c0 -11 3 -14 6 -6 3 7 2 16 -1 19 -3 4 -6 -2 -5 -13z"/>
<path d="M5020 8165 c0 -11 5 -27 10 -35 8 -12 10 -12 10 5 0 11 -5 27 -10 35
-8 12 -10 12 -10 -5z"/>
<path d="M6859 8156 c8 -9 24 -22 35 -28 19 -10 20 -10 7 6 -8 9 -24 22 -35
28 -19 10 -20 10 -7 -6z"/>
<path d="M5216 8111 c-3 -5 -1 -20 4 -33 10 -22 10 -22 7 5 -3 21 0 27 14 27
9 0 20 -5 22 -10 3 -6 4 -5 3 2 -3 16 -42 23 -50 9z"/>
<path d="M6934 8091 c11 -11 23 -21 28 -21 14 0 -1 19 -25 31 -22 12 -22 12
-3 -10z"/>
<path d="M6988 8044 c6 -11 20 -28 33 -39 l23 -20 -23 32 c-26 38 -49 56 -33
27z"/>
<path d="M7050 7960 c6 -11 13 -20 16 -20 2 0 0 9 -6 20 -6 11 -13 20 -16 20
-2 0 0 -9 6 -20z"/>
<path d="M1943 7926 c-179 -163 -199 -183 -191 -192 15 -15 289 231 346 310
18 25 32 46 30 46 -2 0 -85 -74 -185 -164z"/>
<path d="M2110 7781 c-5 -11 -10 -44 -10 -73 1 -45 2 -50 12 -33 6 11 16 23
22 28 8 5 6 10 -4 16 -12 8 -12 13 4 30 18 20 18 21 1 21 -11 0 -15 5 -11 15
8 22 -1 19 -14 -4z"/>
<path d="M2025 7622 c-41 -46 -89 -112 -82 -112 7 0 130 151 126 154 -2 2 -22
-17 -44 -42z"/>
<path d="M3340 7842 c0 -5 7 -15 15 -22 8 -7 15 -8 15 -2 0 5 -7 15 -15 22 -8
7 -15 8 -15 2z"/>
<path d="M2635 7020 c-3 -6 -3 -20 0 -31 6 -17 9 -19 16 -8 12 19 11 49 0 49
-6 0 -13 -5 -16 -10z"/>
<path d="M2681 6957 c-1 -10 -5 -16 -10 -13 -5 4 -7 -4 -3 -16 l5 -22 9 24 c5
13 7 28 4 34 -2 6 -5 3 -5 -7z"/>
<path d="M2414 6876 c-3 -7 -1 -29 5 -47 10 -33 10 -33 8 13 -2 51 -4 57 -13
34z"/>
<path d="M3470 6590 c0 -5 5 -10 11 -10 5 0 7 -6 3 -12 -5 -9 -3 -9 9 1 9 7
14 17 11 22 -7 12 -34 11 -34 -1z"/>
<path d="M4562 6505 c0 -16 2 -22 5 -12 2 9 2 23 0 30 -3 6 -5 -1 -5 -18z"/>
<path d="M4260 6452 c0 -5 7 -15 15 -22 8 -7 15 -9 15 -6 0 4 -7 14 -15 22 -8
9 -15 11 -15 6z"/>
<path d="M3481 6411 c-24 -15 -3 -32 24 -19 13 6 22 15 19 19 -7 11 -25 11
-43 0z"/>
<path d="M4564 6399 c-19 -22 -19 -22 4 -8 12 8 22 17 22 21 0 12 -6 9 -26
-13z"/>
<path d="M4298 6398 c5 -5 16 -8 23 -6 8 3 3 7 -10 11 -17 4 -21 3 -13 -5z"/>
<path d="M4301 6353 c-1 -13 4 -23 10 -23 5 0 7 -6 3 -12 -4 -7 1 -5 12 4 14
14 16 21 6 30 -9 9 -12 9 -13 -2 0 -10 -4 -7 -9 5 -8 19 -9 19 -9 -2z"/>
<path d="M4555 6350 c3 -5 8 -10 11 -10 2 0 4 5 4 10 0 6 -5 10 -11 10 -5 0
-7 -4 -4 -10z"/>
<path d="M4341 6274 c0 -11 3 -14 6 -6 3 7 2 16 -1 19 -3 4 -6 -2 -5 -13z"/>
<path d="M2568 5633 c7 -3 16 -2 19 1 4 3 -2 6 -13 5 -11 0 -14 -3 -6 -6z"/>
<path d="M2839 5576 c14 -14 29 -26 34 -26 13 0 -12 29 -37 42 -19 10 -18 8 3
-16z"/>
<path d="M2388 5413 c7 -3 16 -2 19 1 4 3 -2 6 -13 5 -11 0 -14 -3 -6 -6z"/>
<path d="M2995 5400 c3 -5 8 -10 11 -10 2 0 4 5 4 10 0 6 -5 10 -11 10 -5 0
-7 -4 -4 -10z"/>
<path d="M3345 5101 c-21 -42 -55 -48 -250 -50 -93 -1 -187 -7 -208 -13 -37
-11 -81 -53 -72 -68 3 -4 -5 -11 -18 -15 -22 -7 -22 -8 3 -12 14 -2 31 -12 38
-21 15 -20 16 -46 0 -36 -8 5 -9 2 -5 -10 4 -10 3 -15 -3 -11 -5 3 -17 2 -26
-3 -27 -15 -50 -3 -63 35 -11 30 -15 33 -23 19 -14 -24 -2 -50 47 -102 l43
-47 30 41 c34 48 119 118 167 138 23 9 72 14 144 14 79 0 122 5 151 16 34 14
47 15 85 4 51 -14 65 -8 65 29 0 33 -54 121 -75 121 -8 0 -21 -13 -30 -29z
m-409 -116 c-21 -16 -32 -13 -21 4 3 6 14 11 23 11 15 -1 15 -2 -2 -15z"/>
<path d="M2830 5063 c0 -25 0 -26 20 -8 11 10 20 19 20 20 0 2 -9 5 -20 8 -16
4 -20 0 -20 -20z"/>
<path d="M2744 4994 c3 -9 6 -23 6 -32 1 -15 2 -15 11 1 12 21 5 47 -12 47 -6
0 -8 -7 -5 -16z"/>
<path d="M2992 4768 c-24 -11 -67 -45 -97 -74 -54 -52 -69 -84 -40 -84 8 0 15
4 15 9 0 5 14 14 30 21 35 14 52 5 76 -41 17 -34 18 -43 3 -33 -7 4 -9 0 -5
-12 23 -72 24 -160 3 -148 -8 5 -8 2 1 -7 13 -14 17 -33 5 -26 -5 3 -9 -11
-10 -32 l-2 -36 26 53 c19 41 38 62 78 88 65 41 88 70 115 142 l21 56 -22 30
c-13 17 -33 39 -45 49 -13 9 -24 27 -26 40 -4 31 -68 34 -126 5z m26 -229 c-3
-8 -7 -3 -11 10 -4 17 -3 21 5 13 5 -5 8 -16 6 -23z"/>
<path d="M2773 4712 c7 -21 19 -49 29 -63 16 -23 16 -23 6 21 -12 54 -21 73
-35 77 -8 3 -8 -7 0 -35z"/>
<path d="M3555 3920 c-3 -6 1 -7 9 -4 18 7 21 14 7 14 -6 0 -13 -4 -16 -10z"/>
<path d="M3911 3803 c7 -10 14 -20 16 -22 1 -1 7 0 13 4 8 5 5 11 -7 21 -25
19 -38 17 -22 -3z"/>
<path d="M1816 7582 c-3 -5 1 -9 9 -9 8 0 12 4 9 9 -3 4 -7 8 -9 8 -2 0 -6 -4
-9 -8z"/>
<path d="M1551 7024 c0 -11 3 -14 6 -6 3 7 2 16 -1 19 -3 4 -6 -2 -5 -13z"/>
<path d="M7480 7403 c-8 -10 -10 -15 -5 -10 4 4 17 0 27 -10 10 -9 21 -13 25
-10 3 4 1 7 -6 7 -6 0 -15 9 -19 21 -8 20 -9 20 -22 2z"/>
<path d="M7391 5724 c0 -11 3 -14 6 -6 3 7 2 16 -1 19 -3 4 -6 -2 -5 -13z"/>
<path d="M6996 5394 c-9 -24 0 -29 26 -16 13 6 17 11 10 11 -7 1 -10 6 -7 11
3 6 0 10 -8 10 -8 0 -18 -7 -21 -16z"/>
<path d="M6986 4087 c7 -48 -19 -139 -49 -171 -27 -29 -112 -76 -138 -76 -10
0 -21 -4 -24 -10 -4 -6 9 -10 32 -10 21 0 51 -7 67 -15 15 -8 32 -12 37 -10 5
3 18 36 29 72 11 37 28 75 36 84 9 10 17 23 18 31 2 7 6 21 10 30 4 9 1 38 -8
65 -14 44 -15 45 -10 10z"/>
<path d="M7100 1890 c0 -5 5 -10 10 -10 6 0 10 5 10 10 0 6 -4 10 -10 10 -5 0
-10 -4 -10 -10z"/>
<path d="M7205 1752 c-12 -12 -4 -23 9 -13 11 9 15 9 19 -1 4 -10 8 -9 21 3
16 14 15 16 -14 16 -16 0 -32 -3 -35 -5z"/>
<path d="M5516 3995 c4 -8 8 -15 10 -15 2 0 4 7 4 15 0 8 -4 15 -10 15 -5 0
-7 -7 -4 -15z"/>
<path d="M5541 3921 c-1 -24 2 -32 9 -25 7 7 7 19 1 35 -9 23 -10 22 -10 -10z"/>
<path d="M5472 3870 c1 -14 -1 -30 -5 -37 -4 -7 1 -14 14 -18 25 -8 37 1 21
17 -7 7 -12 17 -12 23 0 5 5 3 10 -5 8 -12 10 -9 10 13 0 15 -4 27 -10 27 -5
0 -10 -6 -10 -12 0 -9 -4 -8 -11 2 -8 12 -9 10 -7 -10z"/>
<path d="M5371 3704 c0 -11 3 -14 6 -6 3 7 2 16 -1 19 -3 4 -6 -2 -5 -13z"/>
<path d="M5350 3551 c0 -25 6 -27 13 -6 4 8 2 17 -3 20 -6 4 -10 -3 -10 -14z"/>
<path d="M5360 3390 c0 -5 5 -10 10 -10 6 0 10 5 10 10 0 6 -4 10 -10 10 -5 0
-10 -4 -10 -10z"/>
<path d="M5368 3363 c7 -3 16 -2 19 1 4 3 -2 6 -13 5 -11 0 -14 -3 -6 -6z"/>
<path d="M5336 3341 c-3 -5 1 -11 9 -15 9 -3 15 0 15 9 0 16 -16 20 -24 6z"/>
<path d="M5288 3283 c6 -2 18 -2 25 0 6 3 1 5 -13 5 -14 0 -19 -2 -12 -5z"/>
<path d="M5258 3265 c-4 -4 -2 -15 5 -26 6 -10 8 -22 4 -26 -5 -4 -12 -1 -17
7 -6 9 -10 10 -10 3 0 -17 20 -27 32 -15 6 6 7 20 1 37 -4 14 -11 23 -15 20z"/>
<path d="M5290 3130 c0 -5 5 -10 10 -10 6 0 10 5 10 10 0 6 -4 10 -10 10 -5 0
-10 -4 -10 -10z"/>
<path d="M5375 2711 c-3 -5 -1 -12 5 -16 5 -3 10 1 10 9 0 18 -6 21 -15 7z"/>
<path d="M4261 2599 c-1 -8 6 -24 15 -35 15 -19 15 -19 6 1 -5 11 -12 27 -15
35 -5 13 -6 13 -6 -1z"/>
<path d="M4296 2515 c4 -11 13 -47 21 -80 8 -33 19 -68 24 -77 5 -10 9 -31 9
-47 0 -16 7 -36 15 -45 18 -18 20 -30 3 -19 -7 4 -5 -5 5 -20 9 -14 17 -34 17
-44 0 -10 3 -13 9 -8 20 21 -15 167 -63 265 -26 52 -43 86 -40 75z"/>
<path d="M4009 2491 c-64 -25 -221 -129 -214 -141 4 -6 3 -10 -2 -9 -20 3 -27
-2 -13 -12 12 -8 10 -9 -8 -4 -18 5 -25 1 -35 -24 -7 -17 -17 -28 -22 -24 -4
5 -5 2 -1 -5 4 -7 11 -10 16 -7 4 3 10 -2 13 -10 4 -10 1 -12 -11 -8 -9 3 -14
3 -10 -2 14 -15 58 -14 58 1 0 20 48 67 60 59 6 -3 10 -1 10 5 0 7 6 10 14 7
8 -3 22 1 33 8 10 8 25 14 33 15 9 0 11 -3 4 -8 -6 -4 -13 -15 -17 -24 -3 -9
-21 -21 -39 -26 -27 -7 -34 -13 -36 -39 -3 -32 -21 -43 -72 -43 -22 0 -26 -5
-28 -32 -2 -18 -8 -36 -15 -40 -8 -5 -4 -8 11 -8 12 0 22 6 22 13 0 8 3 8 9
-2 12 -18 41 -7 48 19 6 22 45 39 51 21 5 -16 22 -14 22 4 0 19 9 19 34 0 13
-10 15 -15 6 -15 -7 0 -11 -2 -9 -5 3 -2 15 -2 28 2 17 4 19 8 9 14 -10 6 -10
11 0 21 18 18 15 31 -8 25 -13 -3 -20 0 -20 9 0 8 7 14 15 14 8 0 15 8 15 18
1 16 1 16 14 -1 8 -11 20 -15 32 -11 13 4 15 3 7 -3 -9 -6 -10 -18 -4 -38 5
-17 10 -26 10 -21 1 5 8 3 16 -4 12 -10 15 -10 16 1 1 38 19 -40 25 -113 3
-46 8 -85 10 -87 7 -7 4 358 -3 447 -3 50 -10 82 -17 82 -6 -1 -32 -9 -57 -19z
m-88 -262 c-10 -23 -10 -23 -10 7 -1 17 2 34 7 38 11 12 14 -18 3 -45z"/>
<path d="M8597 2497 c-3 -7 3 -13 14 -13 13 0 15 3 7 13 -6 7 -12 13 -13 13
-2 0 -5 -6 -8 -13z"/>
<path d="M8035 2401 c-10 -17 12 -21 25 -6 10 12 10 15 -3 15 -9 0 -18 -4 -22
-9z"/>
<path d="M8070 2372 c0 -12 19 -26 26 -19 2 2 -2 10 -11 17 -9 8 -15 8 -15 2z"/>
<path d="M3645 2222 c-17 -15 -48 -42 -70 -59 -52 -45 -35 -42 28 4 43 31 48
33 34 12 -14 -22 -14 -27 3 -57 16 -30 19 -31 34 -17 21 22 20 30 -6 55 -12
11 -16 20 -9 20 7 0 11 8 9 18 -2 11 3 26 11 35 21 27 -1 19 -34 -11z"/>
<path d="M8801 2223 c7 -12 15 -20 18 -17 3 2 -3 12 -13 22 -17 16 -18 16 -5
-5z"/>
<path d="M9835 2183 c-16 -9 -60 -41 -97 -70 -53 -44 -87 -84 -161 -196 -116
-174 -226 -318 -269 -350 -18 -14 -87 -55 -153 -92 -66 -37 -160 -91 -210
-120 -362 -210 -505 -276 -825 -380 -96 -32 -197 -68 -225 -80 -40 -19 -72
-24 -160 -27 -105 -4 -114 -6 -200 -47 -221 -105 -248 -125 -496 -363 -96 -92
-195 -183 -221 -203 -50 -37 -64 -67 -55 -113 3 -16 2 -45 -3 -65 -4 -21 -6
-46 -3 -57 5 -20 21 -20 1715 -20 l1709 0 -26 23 c-21 18 -26 30 -23 57 l3 35
23 -43 c12 -23 30 -42 39 -42 9 0 22 -8 29 -17 11 -15 13 71 14 520 l0 538
-32 -22 c-80 -55 -311 -240 -390 -312 -129 -118 -196 -165 -264 -186 -87 -27
-281 -58 -484 -76 -197 -18 -476 -50 -562 -66 -52 -9 -62 -8 -104 14 l-47 24
48 5 c26 3 50 10 54 16 3 6 15 10 25 9 10 -1 21 4 23 11 3 7 -1 10 -11 6 -20
-8 -21 6 -1 32 19 25 19 38 0 30 -8 -3 -15 -2 -15 3 0 5 17 13 38 18 31 8 39
7 39 -3 0 -8 -9 -16 -19 -20 -27 -8 -22 -19 10 -20 15 0 34 -3 42 -6 8 -2 12
-3 8 -1 -15 8 -8 19 24 37 30 19 31 19 24 1 -7 -18 -6 -18 13 -1 21 19 20 36
-4 36 -7 0 -27 -11 -43 -25 -36 -31 -39 -31 -37 -3 1 18 15 27 61 45 32 13 65
21 72 18 7 -3 10 0 7 5 -9 15 7 12 29 -5 11 -8 31 -15 45 -15 21 0 15 6 -29
28 -30 16 -69 36 -86 47 l-30 18 21 21 c39 39 117 101 199 159 119 84 120 84
175 63 25 -10 54 -18 63 -19 9 -1 15 -3 13 -6 -3 -2 20 -17 50 -33 l55 -28
100 80 c103 81 114 88 125 70 7 -11 54 -3 69 11 9 9 -4 13 -29 10 -5 0 6 11
25 26 19 15 51 45 72 66 21 23 39 34 43 28 3 -6 10 -11 14 -11 13 0 183 114
243 163 l58 47 92 0 c68 0 89 3 81 11 -6 6 -32 14 -57 16 -52 6 -59 19 -19 34
20 7 49 5 115 -9 l88 -20 0 173 0 172 -58 45 c-79 61 -141 145 -208 283 -50
103 -75 136 -101 135 -4 -1 -21 -8 -38 -17z m-1385 -1624 c0 -6 -7 -8 -15 -5
-9 3 -18 -1 -21 -9 -4 -8 -9 -13 -14 -10 -4 2 -16 -2 -26 -10 -11 -8 -14 -14
-6 -15 23 0 12 -18 -21 -33 -39 -19 -119 -38 -112 -27 2 4 22 10 44 14 22 3
43 11 47 18 5 7 2 9 -9 5 -8 -3 -33 -9 -54 -12 l-38 -7 45 26 c122 68 180 89
180 65z"/>
<path d="M3836 2143 c-6 -14 -5 -15 5 -6 7 7 10 15 7 18 -3 3 -9 -2 -12 -12z"/>
<path d="M4012 2135 c0 -16 2 -22 5 -12 2 9 2 23 0 30 -3 6 -5 -1 -5 -18z"/>
<path d="M4041 2144 c0 -11 3 -14 6 -6 3 7 2 16 -1 19 -3 4 -6 -2 -5 -13z"/>
<path d="M8645 2120 c3 -5 8 -10 11 -10 2 0 4 5 4 10 0 6 -5 10 -11 10 -5 0
-7 -4 -4 -10z"/>
<path d="M3620 2075 c0 -8 2 -15 4 -15 2 0 6 7 10 15 3 8 1 15 -4 15 -6 0 -10
-7 -10 -15z"/>
<path d="M3748 2083 c-10 -3 -18 -14 -18 -26 0 -16 3 -18 12 -9 17 17 36 15
41 -5 4 -14 5 -15 6 -2 2 23 -22 46 -41 42z"/>
<path d="M3995 2070 c-3 -5 -2 -10 4 -10 5 0 13 5 16 10 3 6 2 10 -4 10 -5 0
-13 -4 -16 -10z"/>
<path d="M3666 2055 c-4 -11 -12 -30 -17 -43 -11 -29 -11 -32 0 -32 5 0 12 9
16 19 4 12 12 18 21 14 7 -3 14 0 14 6 0 6 -4 11 -9 11 -5 0 -11 10 -14 23 -3
21 -4 21 -11 2z"/>
<path d="M3586 2011 c-4 -5 3 -7 14 -4 23 6 26 13 6 13 -8 0 -17 -4 -20 -9z"/>
<path d="M8971 2006 c-19 -23 4 -28 24 -6 15 17 16 20 3 20 -9 0 -21 -6 -27
-14z"/>
<path d="M3512 1963 c-10 -4 -11 -33 -6 -131 6 -120 5 -128 -15 -151 -23 -26
-21 -42 3 -22 12 10 20 4 47 -29 30 -37 57 -49 52 -22 -2 6 -5 30 -8 54 -3 24
-10 58 -16 76 -8 25 -8 37 0 45 6 6 11 19 11 29 0 28 28 78 44 78 20 0 37 25
30 44 -5 12 -14 16 -30 12 -13 -4 -25 -1 -28 7 -3 6 -3 1 0 -12 4 -14 2 -21
-4 -17 -5 3 -15 -1 -22 -9 -18 -22 -30 -18 -30 8 0 29 -12 45 -28 40z m68
-323 c0 -5 -2 -10 -4 -10 -3 0 -8 5 -11 10 -3 6 -1 10 4 10 6 0 11 -4 11 -10z"/>
<path d="M8662 1910 c-8 -13 -8 -20 -2 -20 6 0 13 7 17 15 9 24 -1 27 -15 5z"/>
<path d="M9070 1895 c-15 -8 -19 -14 -10 -14 18 -1 46 16 40 23 -3 2 -16 -2
-30 -9z"/>
<path d="M4066 1718 c-4 -73 -11 -151 -17 -173 -5 -22 -11 -49 -13 -60 -2 -11
-4 -22 -5 -24 0 -2 -14 11 -30 28 -36 39 -51 39 -52 1 -1 -16 -3 -43 -4 -60
-2 -16 -4 -50 -5 -75 -1 -29 -6 -43 -12 -39 -7 5 -9 -8 -4 -38 7 -45 7 -46
-36 -71 -24 -13 -88 -40 -143 -58 -55 -19 -106 -40 -113 -46 -7 -7 -25 -13
-39 -13 -23 0 -24 2 -12 17 8 9 12 26 10 37 -3 21 -3 21 18 2 17 -15 26 -17
44 -9 12 6 38 17 57 24 69 25 120 50 120 59 0 6 -7 10 -15 10 -8 0 -15 7 -15
16 0 8 -4 13 -9 9 -5 -3 -13 0 -17 6 -5 9 -10 8 -18 -3 -16 -21 -51 -38 -79
-38 -13 0 -36 -12 -51 -26 -28 -29 -37 -22 -10 7 16 17 15 19 -10 29 -34 13
-56 13 -56 0 0 -5 -5 -10 -11 -10 -8 0 -7 5 1 15 16 19 9 28 -14 19 -10 -4
-15 -13 -12 -21 9 -23 -4 -35 -20 -18 -17 17 -5 48 25 64 25 14 36 52 12 44
-9 -3 -21 -10 -28 -15 -7 -6 -19 -5 -32 1 -31 17 -37 14 -47 -26 -5 -20 -14
-38 -20 -40 -13 -4 -13 39 1 49 6 5 5 8 -2 8 -7 0 -22 -9 -33 -20 -19 -19 -22
-19 -44 -4 -19 12 -29 13 -45 4 -12 -6 -21 -15 -21 -21 0 -6 -5 -7 -10 -4 -6
4 -7 11 -4 17 4 6 -1 8 -16 3 -21 -7 -21 -6 -5 19 22 33 6 34 -25 1 -16 -17
-34 -25 -57 -25 -18 0 -33 -5 -33 -11 0 -5 -4 -8 -9 -4 -5 3 -12 1 -16 -5 -3
-5 -16 -10 -28 -11 l-22 0 23 -9 c12 -5 26 -20 31 -33 5 -12 16 -29 25 -36 34
-28 3 -96 -40 -88 -13 2 -24 0 -24 -4 0 -5 9 -9 20 -9 26 0 25 -10 -6 -68 -22
-42 -24 -50 -13 -77 16 -38 19 -65 7 -65 -5 0 -1 -14 7 -30 9 -18 21 -28 27
-24 7 4 8 3 4 -4 -4 -7 14 -55 40 -107 26 -52 51 -90 54 -84 5 7 9 6 13 -5 3
-8 1 -17 -6 -19 -8 -3 -5 -18 11 -52 18 -38 22 -56 16 -93 -5 -32 -4 -43 5
-38 6 4 11 16 11 27 0 25 16 25 30 0 17 -33 12 -61 -11 -61 -19 0 -21 -5 -18
-52 2 -31 -2 -68 -10 -88 -19 -47 -81 -138 -120 -175 -17 -17 -31 -33 -31 -37
0 -5 56 -8 124 -8 110 0 125 2 129 18 4 16 5 16 6 0 1 -12 9 -18 25 -18 50 0
39 117 -26 264 -22 50 -42 109 -44 131 -1 22 -8 68 -15 102 -14 77 -6 128 24
147 27 17 147 32 147 19 0 -15 50 -34 72 -27 16 5 11 10 -29 29 -66 33 -115
78 -107 98 3 10 9 17 13 17 3 0 41 33 83 73 74 72 195 143 274 163 l29 7 -30
-36 c-17 -19 -34 -36 -39 -36 -15 -1 -75 -45 -81 -59 -7 -17 63 13 93 41 13
12 48 54 78 92 30 39 70 90 90 115 40 49 99 169 146 295 26 72 30 94 35 247 3
92 4 168 1 168 -3 0 -8 -60 -12 -132z m-893 -499 c-4 -15 -9 -17 -17 -9 -8 8
-7 13 4 20 8 5 16 10 17 10 0 0 -1 -9 -4 -21z m374 -74 c-3 -19 -2 -35 4 -35
5 0 9 -4 9 -8 0 -4 -15 -8 -34 -8 -19 0 -32 4 -30 8 3 5 -1 22 -10 38 -12 26
-12 30 0 30 8 0 15 -8 15 -17 1 -17 2 -17 6 0 2 9 9 15 14 12 5 -4 9 -1 9 4 0
6 5 11 11 11 8 0 10 -12 6 -35z m-107 -54 c0 -12 -20 -25 -27 -18 -7 7 6 27
18 27 5 0 9 -4 9 -9z m-350 -167 c0 -24 -14 -32 -25 -14 -9 14 4 52 16 45 5
-4 9 -17 9 -31z m0 -99 c0 -8 -2 -15 -4 -15 -2 0 -6 7 -10 15 -3 8 -1 15 4 15
6 0 10 -7 10 -15z m48 -10 c-3 -3 -9 2 -12 12 -6 14 -5 15 5 6 7 -7 10 -15 7
-18z m19 -37 c-3 -8 -6 -5 -6 6 -1 11 2 17 5 13 3 -3 4 -12 1 -19z m-25 -30
c-8 -8 -12 -9 -12 -1 0 6 -3 20 -6 30 -7 17 -6 17 12 1 14 -14 16 -20 6 -30z
m15 -40 c-3 -8 -6 -5 -6 6 -1 11 2 17 5 13 3 -3 4 -12 1 -19z m143 -34 c0 -8
-5 -12 -10 -9 -6 4 -8 11 -5 16 9 14 15 11 15 -7z m-67 -124 c3 -11 1 -20 -4
-20 -5 0 -9 9 -9 20 0 11 2 20 4 20 2 0 6 -9 9 -20z m77 -370 c0 -5 -4 -10
-10 -10 -5 0 -10 5 -10 10 0 6 5 10 10 10 6 0 10 -4 10 -10z m30 -89 c0 -11
-4 -23 -10 -26 -6 -4 -10 5 -10 19 0 14 5 26 10 26 6 0 10 -9 10 -19z"/>
<path d="M6350 1734 c0 -8 5 -12 10 -9 6 4 8 11 5 16 -9 14 -15 11 -15 -7z"/>
<path d="M8550 1710 c-9 -6 -10 -10 -3 -10 6 0 15 5 18 10 8 12 4 12 -15 0z"/>
<path d="M8185 1690 c-3 -6 1 -7 9 -4 18 7 21 14 7 14 -6 0 -13 -4 -16 -10z"/>
<path d="M4735 1660 c3 -5 11 -10 16 -10 6 0 7 5 4 10 -3 6 -11 10 -16 10 -6
0 -7 -4 -4 -10z"/>
<path d="M4800 1636 c0 -4 7 -14 15 -22 8 -9 15 -11 15 -6 0 5 -7 15 -15 22
-8 7 -15 9 -15 6z"/>
<path d="M4853 1573 c9 -9 20 -13 24 -9 4 4 1 11 -7 16 -25 16 -35 11 -17 -7z"/>
<path d="M3336 1557 c-14 -15 -26 -24 -26 -22 0 3 -26 -21 -57 -53 -32 -32
-66 -64 -76 -71 -17 -13 -18 -12 -12 12 6 21 4 27 -10 27 -13 0 -15 -6 -10
-31 9 -41 -17 -71 -54 -63 -25 5 -25 5 -7 -10 35 -28 67 -19 127 37 11 9 26
17 34 17 8 0 15 9 15 20 0 11 3 19 8 19 26 -4 32 2 21 22 -6 12 -7 19 -1 15 5
-3 13 2 16 12 12 32 36 67 36 52 0 -9 6 -7 16 8 23 33 10 39 -20 9z"/>
<path d="M4910 1490 c0 -5 5 -10 10 -10 6 0 10 5 10 10 0 6 -4 10 -10 10 -5 0
-10 -4 -10 -10z"/>
<path d="M3185 1481 c-3 -5 -1 -12 5 -16 5 -3 10 1 10 9 0 18 -6 21 -15 7z"/>
<path d="M5000 1398 c0 -49 5 -47 14 5 4 23 3 37 -4 37 -5 0 -10 -19 -10 -42z"/>
<path d="M6929 1353 c-13 -16 -12 -17 4 -4 16 13 21 21 13 21 -2 0 -10 -8 -17
-17z"/>
<path d="M7590 1289 c-30 -10 -114 -48 -186 -84 -113 -56 -135 -71 -164 -112
l-34 -47 39 24 c22 13 68 43 102 67 34 24 122 73 195 108 133 64 151 80 48 44z"/>
<path d="M7223 1228 c-37 -35 -95 -91 -128 -125 -42 -43 -82 -72 -134 -97
-103 -49 -129 -76 -127 -131 1 -24 -2 -41 -5 -39 -10 6 -20 -26 -12 -38 3 -7
1 -8 -5 -4 -13 8 -36 -30 -27 -44 3 -6 1 -10 -4 -10 -6 0 -11 -6 -11 -14 0 -8
-10 -27 -23 -43 -38 -45 -205 -343 -193 -343 5 0 96 129 96 135 0 9 79 122 94
134 9 7 16 19 16 25 0 6 23 40 50 76 47 60 108 118 227 217 44 37 51 49 57 90
7 54 38 98 143 206 37 37 64 67 60 67 -3 0 -37 -28 -74 -62z m-189 -241 c-16
-17 -33 -34 -39 -36 -5 -2 -31 -26 -57 -53 -27 -26 -53 -48 -59 -48 -8 0 -7
-6 2 -17 13 -15 12 -15 -8 -4 -35 18 -29 53 16 94 22 19 36 39 33 43 -4 4 -2
5 3 2 6 -3 37 9 70 27 33 18 62 31 64 29 3 -2 -9 -19 -25 -37z"/>
<path d="M3590 1249 c0 -5 5 -7 10 -4 6 3 10 8 10 11 0 2 -4 4 -10 4 -5 0 -10
-5 -10 -11z"/>
<path d="M3880 1252 c0 -5 9 -12 21 -15 13 -3 19 -1 16 6 -5 15 -37 22 -37 9z"/>
<path d="M9585 1100 c-3 -5 1 -10 9 -10 9 0 16 5 16 10 0 6 -4 10 -9 10 -6 0
-13 -4 -16 -10z"/>
<path d="M9546 1061 c-3 -5 8 -11 25 -15 49 -10 56 -7 25 9 -33 17 -43 18 -50
6z"/>
<path d="M2916 1009 c-4 -9 11 -41 40 -85 57 -85 76 -100 87 -70 4 9 1 13 -6
11 -24 -9 -77 55 -101 122 -10 27 -16 34 -20 22z"/>
<path d="M4712 900 c0 -14 2 -19 5 -12 2 6 2 18 0 25 -3 6 -5 1 -5 -13z"/>
<path d="M3914 787 c-5 -7 -13 -21 -17 -32 -6 -16 -3 -15 13 5 25 32 29 56 4
27z"/>
<path d="M8550 510 c0 -5 5 -10 10 -10 6 0 10 5 10 10 0 6 -4 10 -10 10 -5 0
-10 -4 -10 -10z"/>
<path d="M2227 478 c9 -18 24 -44 33 -58 9 -14 17 -35 18 -48 1 -21 -1 -22
-16 -10 -9 7 24 -32 75 -87 50 -55 87 -102 82 -103 -5 -2 -9 -14 -9 -28 0 -17
4 -22 15 -18 21 9 51 -16 33 -27 -9 -6 -7 -9 8 -9 24 0 39 -26 22 -36 -7 -5
-8 -2 -3 6 5 9 4 11 -3 6 -15 -9 1 -41 26 -55 10 -5 58 -10 107 -10 l90 0 -30
22 c-58 42 -221 190 -291 264 -132 139 -105 133 38 -10 194 -192 298 -283 315
-276 4 2 -82 91 -192 198 -350 338 -345 334 -318 279z"/>
<path d="M6835 358 l-40 -43 43 40 c39 36 47 45 39 45 -2 0 -21 -19 -42 -42z"/>
<path d="M6543 315 c0 -8 4 -12 9 -9 5 3 6 10 3 15 -9 13 -12 11 -12 -6z"/>
<path d="M6426 168 c5 -8 2 -9 -10 -5 -10 4 -15 3 -11 -3 3 -6 13 -10 21 -10
8 0 13 -5 12 -12 -2 -6 11 -18 27 -26 17 -8 31 -19 33 -23 2 -4 11 -5 20 -2
14 6 15 4 5 -8 -9 -11 -8 -19 3 -34 13 -17 16 -18 25 -5 9 12 10 11 6 -7 -6
-29 7 -33 109 -33 90 0 93 3 70 49 -8 15 -13 37 -10 47 4 14 0 20 -13 20 -34
0 -248 48 -251 56 -2 4 -13 8 -23 8 -13 0 -18 -4 -13 -12z"/>
<path d="M6480 26 c0 -2 8 -10 18 -17 15 -13 16 -12 3 4 -13 16 -21 21 -21 13z"/>
</g>
</svg>
